<?xml version="1.0" encoding="UTF-8" standalone="no"?>
<!-- Created with Inkscape (http://www.inkscape.org/) -->

<svg
   version="1.1"
   id="svg2"
   width="143.70267"
   height="170.58932"
   viewBox="0 0 143.70267 170.58932"
   xmlns="http://www.w3.org/2000/svg"
   xmlns:svg="http://www.w3.org/2000/svg">
  <defs
     id="defs6" />
  <g
     id="g8"
     transform="matrix(1.3333333,0,0,-1.3333333,0,170.58933)">
    <g
       id="g10"
       transform="translate(5.875,121.162)">
      <g
         id="g12">
        <g
           id="g14">
          <g
             id="g16">
            <g
               id="g18">
              <g
                 id="g20"
                 transform="translate(-2.554,-1.176)">
                <g
                   id="g22">
                  <g
                     id="g24"
                     transform="translate(-3.321,-119.986)">
                    <text
                       xml:space="preserve"
                       transform="matrix(1,0,0,-1,3.321,119.986)"
                       style="font-variant:normal;font-weight:normal;font-size:9.9626px;font-family:CMMI10;-inkscape-font-specification:CMMI10;writing-mode:lr-tb;fill:#000000;fill-opacity:1;fill-rule:nonzero;stroke:none"
                       id="text28"><tspan
                         x="0"
                         y="0"
                         id="tspan26">g</tspan></text>
                    <g
                       id="g30"
                       transform="translate(3.321,119.986)" />
                  </g>
                </g>
                <g
                   id="g32"
                   transform="translate(2.554,1.176)" />
              </g>
            </g>
            <g
               id="g34">
              <g
                 id="g36"
                 transform="translate(-2.554,-114.562)">
                <g
                   id="g38">
                  <g
                     id="g40"
                     transform="translate(-3.321,-6.6)">
                    <text
                       xml:space="preserve"
                       transform="matrix(1,0,0,-1,3.321,6.6)"
                       style="font-variant:normal;font-weight:normal;font-size:9.9626px;font-family:CMMI10;-inkscape-font-specification:CMMI10;writing-mode:lr-tb;fill:#000000;fill-opacity:1;fill-rule:nonzero;stroke:none"
                       id="text44"><tspan
                         x="0"
                         y="0"
                         id="tspan42">g</tspan></text>
                    <g
                       id="g46"
                       transform="translate(3.321,6.6)" />
                  </g>
                </g>
                <g
                   id="g48"
                   transform="translate(2.554,114.562)" />
              </g>
            </g>
            <g
               id="g50" />
            <g
               id="g52" />
            <g
               id="g54" />
            <g
               id="g56">
              <g
                 id="g58"
                 transform="translate(82.902,-3.459)">
                <g
                   id="g60">
                  <g
                     id="g62"
                     transform="translate(-88.777,-117.703)">
                    <text
                       xml:space="preserve"
                       transform="matrix(1,0,0,-1,88.777,117.703)"
                       style="font-variant:normal;font-weight:normal;font-size:9.9626px;font-family:CMMI10;-inkscape-font-specification:CMMI10;writing-mode:lr-tb;fill:#000000;fill-opacity:1;fill-rule:nonzero;stroke:none"
                       id="text66"><tspan
                         x="0"
                         y="0"
                         id="tspan64">b</tspan></text>
                    <g
                       id="g68"
                       transform="translate(88.777,117.703)" />
                  </g>
                </g>
                <g
                   id="g70"
                   transform="translate(-82.902,3.459)" />
              </g>
            </g>
            <g
               id="g72">
              <g
                 id="g74"
                 transform="translate(82.902,-117.841)">
                <g
                   id="g76">
                  <g
                     id="g78"
                     transform="translate(0,8.313)">
                    <path
                       d="M 0,0 H 4.276"
                       style="fill:none;stroke:#000000;stroke-width:0.398;stroke-linecap:butt;stroke-linejoin:miter;stroke-miterlimit:10;stroke-dasharray:none;stroke-opacity:1"
                       id="path80" />
                  </g>
                  <g
                     id="g82"
                     transform="translate(-88.777,-3.321)">
                    <text
                       xml:space="preserve"
                       transform="matrix(1,0,0,-1,88.777,3.321)"
                       style="font-variant:normal;font-weight:normal;font-size:9.9626px;font-family:CMMI10;-inkscape-font-specification:CMMI10;writing-mode:lr-tb;fill:#000000;fill-opacity:1;fill-rule:nonzero;stroke:none"
                       id="text86"><tspan
                         x="0"
                         y="0"
                         id="tspan84">b</tspan></text>
                    <g
                       id="g88"
                       transform="translate(88.777,3.321)" />
                  </g>
                </g>
                <g
                   id="g90"
                   transform="translate(-82.902,117.841)" />
              </g>
            </g>
            <g
               id="g92" />
            <g
               id="g94" />
            <g
               id="g96" />
            <g
               id="g98" />
            <g
               id="g100" />
            <g
               id="g102">
              <g
                 id="g104"
                 transform="translate(93.88,-27.459)">
                <g
                   id="g106">
                  <g
                     id="g108"
                     transform="translate(-99.755,-93.703)">
                    <text
                       xml:space="preserve"
                       transform="matrix(1,0,0,-1,99.755,93.703)"
                       style="font-variant:normal;font-weight:normal;font-size:9.9626px;font-family:CMMI10;-inkscape-font-specification:CMMI10;writing-mode:lr-tb;fill:#000000;fill-opacity:1;fill-rule:nonzero;stroke:none"
                       id="text112"><tspan
                         x="0"
                         y="0"
                         id="tspan110">l</tspan></text>
                    <g
                       id="g114"
                       transform="translate(99.755,93.703)" />
                  </g>
                </g>
                <g
                   id="g116"
                   transform="translate(-93.88,27.459)" />
              </g>
            </g>
            <g
               id="g118">
              <g
                 id="g120"
                 transform="translate(93.88,-54.748)">
                <g
                   id="g122">
                  <g
                     id="g124"
                     transform="translate(0,8.313)">
                    <path
                       d="M 0,0 H 3.169"
                       style="fill:none;stroke:#000000;stroke-width:0.398;stroke-linecap:butt;stroke-linejoin:miter;stroke-miterlimit:10;stroke-dasharray:none;stroke-opacity:1"
                       id="path126" />
                  </g>
                  <g
                     id="g128"
                     transform="translate(-99.755,-66.414)">
                    <text
                       xml:space="preserve"
                       transform="matrix(1,0,0,-1,99.755,66.414)"
                       style="font-variant:normal;font-weight:normal;font-size:9.9626px;font-family:CMMI10;-inkscape-font-specification:CMMI10;writing-mode:lr-tb;fill:#000000;fill-opacity:1;fill-rule:nonzero;stroke:none"
                       id="text132"><tspan
                         x="0"
                         y="0"
                         id="tspan130">l</tspan></text>
                    <g
                       id="g134"
                       transform="translate(99.755,66.414)" />
                  </g>
                </g>
                <g
                   id="g136"
                   transform="translate(-93.88,54.748)" />
              </g>
            </g>
            <g
               id="g138">
              <g
                 id="g140"
                 transform="translate(92.348,-65.61)">
                <g
                   id="g142">
                  <g
                     id="g144"
                     transform="translate(-98.223,-55.552)">
                    <text
                       xml:space="preserve"
                       transform="matrix(1,0,0,-1,98.223,55.552)"
                       style="font-variant:normal;font-weight:normal;font-size:9.9626px;font-family:CMMI10;-inkscape-font-specification:CMMI10;writing-mode:lr-tb;fill:#000000;fill-opacity:1;fill-rule:nonzero;stroke:none"
                       id="text148"><tspan
                         x="0"
                         y="0"
                         id="tspan146">χ</tspan></text>
                    <g
                       id="g150"
                       transform="translate(98.223,55.552)" />
                  </g>
                </g>
                <g
                   id="g152"
                   transform="translate(-92.348,65.61)" />
              </g>
            </g>
            <g
               id="g154">
              <g
                 id="g156"
                 transform="translate(92.348,-92.207)">
                <g
                   id="g158">
                  <g
                     id="g160"
                     transform="translate(0,5.684)">
                    <path
                       d="M 0,0 H 6.234"
                       style="fill:none;stroke:#000000;stroke-width:0.398;stroke-linecap:butt;stroke-linejoin:miter;stroke-miterlimit:10;stroke-dasharray:none;stroke-opacity:1"
                       id="path162" />
                  </g>
                  <g
                     id="g164"
                     transform="translate(-98.223,-28.955)">
                    <text
                       xml:space="preserve"
                       transform="matrix(1,0,0,-1,98.223,28.955)"
                       style="font-variant:normal;font-weight:normal;font-size:9.9626px;font-family:CMMI10;-inkscape-font-specification:CMMI10;writing-mode:lr-tb;fill:#000000;fill-opacity:1;fill-rule:nonzero;stroke:none"
                       id="text168"><tspan
                         x="0"
                         y="0"
                         id="tspan166">χ</tspan></text>
                    <g
                       id="g170"
                       transform="translate(98.223,28.955)" />
                  </g>
                </g>
                <g
                   id="g172"
                   transform="translate(-92.348,92.207)" />
              </g>
            </g>
            <g
               id="g174">
              <g
                 id="g176">
                <g
                   id="g178">
                  <path
                     d="m 6.0745,-6.07281 c -0.72697,-1.22791 -0.67246,-2.84995 0.3111,-3.83358 0.98354,-0.98362 2.60558,-1.0383 3.83356,-0.31144 1.22795,0.72685 1.67447,1.84782 1.19194,2.33038 -0.48253,0.48259 -1.60354,0.03616 -2.33049,-1.19175 -0.71159,-1.24319 -0.65709,-2.86523 0.32648,-3.84885 0.98354,-0.98363 2.60557,-1.0383 3.83356,-0.31145 1.22795,0.72685 1.67447,1.84782 1.19194,2.33038 -0.48253,0.48259 -1.60355,0.03616 -2.33049,-1.19174 -0.7116,-1.24321 -0.6571,-2.86525 0.32647,-3.84888 0.98354,-0.98362 2.60558,-1.0383 3.83356,-0.31144 1.22795,0.72685 1.67447,1.84783 1.19194,2.33038 -0.48253,0.48259 -1.60355,0.03616 -2.33049,-1.19174 -0.71159,-1.24321 -0.65709,-2.86526 0.32648,-3.84888 0.98354,-0.98363 2.60557,-1.0383 3.83356,-0.31145 1.22795,0.72685 1.67446,1.84784 1.19194,2.33039 -0.48253,0.48258 -1.60355,0.03618 -2.33049,-1.19175 -0.7116,-1.24321 -0.65709,-2.86525 0.32647,-3.84887 0.98354,-0.98363 2.60558,-1.0383 3.83356,-0.31145 1.22795,0.72685 1.67447,1.84784 1.19194,2.33038 -0.48253,0.48259 -1.60354,0.03618 -2.33049,-1.19174 -0.71159,-1.24321 -0.65709,-2.86525 0.32648,-3.84888 0.98353,-0.98362 2.60557,-1.0383 3.83355,-0.31144 1.22795,0.72685 1.67447,1.84783 1.19194,2.33038 -0.48252,0.48259 -1.60354,0.03618 -2.33049,-1.19174 -0.71159,-1.24321 -0.65709,-2.86525 0.32648,-3.84888 0.98354,-0.98363 2.60558,-1.0383 3.83356,-0.31145 l 1.71821,-1.71835"
                     style="fill:none;stroke:#000000;stroke-width:0.3985;stroke-linecap:butt;stroke-linejoin:miter;stroke-miterlimit:10;stroke-dasharray:none;stroke-opacity:1"
                     id="path180" />
                </g>
              </g>
              <g
                 id="g182">
                <g
                   id="g184">
                  <path
                     d="m 6.0745,-107.31445 c 1.22794,-0.72685 2.85,-0.6722 3.83355,0.31143 0.98354,0.98362 1.03805,2.60568 0.31111,3.83359 -0.72696,1.2279 -1.84799,1.67431 -2.33052,1.19175 -0.48251,-0.48259 -0.03601,-1.60354 1.19197,-2.33039 1.24332,-0.71157 2.86537,-0.65691 3.84892,0.32672 0.98354,0.98362 1.03806,2.60568 0.31112,3.83358 -0.72696,1.22791 -1.848,1.67432 -2.33052,1.19176 -0.48252,-0.48259 -0.03602,-1.60355 1.19197,-2.33039 1.24331,-0.71156 2.86537,-0.6569 3.84892,0.32673 0.98354,0.98363 1.03805,2.60568 0.31111,3.83359 -0.72696,1.2279 -1.84799,1.67431 -2.33052,1.19175 -0.48251,-0.48259 -0.03601,-1.60354 1.19197,-2.33039 1.24332,-0.71155 2.86537,-0.6569 3.84892,0.32673 0.98354,0.98363 1.03806,2.60569 0.31112,3.83359 -0.72696,1.2279 -1.848,1.67432 -2.33052,1.19176 -0.48252,-0.48259 -0.03602,-1.60355 1.19197,-2.3304 1.24331,-0.71155 2.86537,-0.65689 3.84892,0.32674 0.98353,0.98362 1.03805,2.60566 0.31111,3.83358 -0.72696,1.22791 -1.848,1.67432 -2.33052,1.19176 -0.48251,-0.48259 -0.03601,-1.60354 1.19197,-2.3304 1.24332,-0.71154 2.86537,-0.65691 3.84892,0.32674 0.98354,0.98362 1.03806,2.60566 0.31111,3.83358 -0.72696,1.22791 -1.84799,1.67432 -2.33052,1.19176 -0.48251,-0.48259 -0.03601,-1.60354 1.19197,-2.3304 1.24332,-0.71154 2.86537,-0.6569 3.84893,0.32674 0.98354,0.98363 1.03805,2.60567 0.31111,3.83359 l 1.71821,1.71835"
                     style="fill:none;stroke:#000000;stroke-width:0.3985;stroke-linecap:butt;stroke-linejoin:miter;stroke-miterlimit:10;stroke-dasharray:none;stroke-opacity:1"
                     id="path186" />
                </g>
              </g>
              <g
                 id="g188">
                <g
                   id="g190">
                  <path
                     d="M 30.06636,-30.06636 79.3828,-3.09247"
                     style="fill:none;stroke:#000000;stroke-width:0.3985;stroke-linecap:butt;stroke-linejoin:miter;stroke-miterlimit:10;stroke-dasharray:none;stroke-opacity:1"
                     id="path192" />
                </g>
              </g>
              <g
                 id="g194">
                <g
                   id="g196">
                  <path
                     d="m 30.06636,-56.69254 v 26.62618"
                     style="fill:none;stroke:#000000;stroke-width:0.3985;stroke-linecap:butt;stroke-linejoin:miter;stroke-miterlimit:10;stroke-dasharray:none;stroke-opacity:1"
                     id="path198" />
                </g>
              </g>
              <g
                 id="g200">
                <g
                   id="g202">
                  <path
                     d="M 30.06636,-56.69254 V -83.3209"
                     style="fill:none;stroke:#000000;stroke-width:0.3985;stroke-linecap:butt;stroke-linejoin:miter;stroke-miterlimit:10;stroke-dasharray:none;stroke-opacity:1"
                     id="path204" />
                </g>
              </g>
              <g
                 id="g206">
                <g
                   id="g208">
                  <path
                     d="M 30.06636,-83.3209 79.3828,-110.2948"
                     style="fill:none;stroke:#000000;stroke-width:0.3985;stroke-linecap:butt;stroke-linejoin:miter;stroke-miterlimit:10;stroke-dasharray:none;stroke-opacity:1"
                     id="path210" />
                </g>
              </g>
              <g
                 id="g212">
                <g
                   id="g214">
                  <g
                     id="g216">
                    <path
                       d="m 30.06636,-56.69254 h 28.3468"
                       style="fill:none;stroke:#000000;stroke-width:0.3985;stroke-linecap:butt;stroke-linejoin:miter;stroke-miterlimit:10;stroke-dasharray:2.98883, 2.98883;stroke-dashoffset:0;stroke-opacity:1"
                       id="path218" />
                  </g>
                </g>
                <g
                   id="g220">
                  <g
                     id="g222"
                     transform="translate(39.694,-53.172)">
                    <g
                       id="g224">
                      <g
                         id="g226"
                         transform="translate(-45.569,-67.99)">
                        <text
                           xml:space="preserve"
                           transform="matrix(1,0,0,-1,45.569,67.99)"
                           style="font-variant:normal;font-weight:normal;font-size:9.9626px;font-family:CMMI10;-inkscape-font-specification:CMMI10;writing-mode:lr-tb;fill:#000000;fill-opacity:1;fill-rule:nonzero;stroke:none"
                           id="text230"><tspan
                             x="0"
                             y="0"
                             id="tspan228">H</tspan></text>
                        <g
                           id="g232"
                           transform="translate(45.569,67.99)" />
                      </g>
                    </g>
                    <g
                       id="g234"
                       transform="translate(-39.694,53.172)" />
                  </g>
                </g>
              </g>
              <g
                 id="g236">
                <g
                   id="g238">
                  <path
                     d="m 58.41316,-56.69254 0.41731,0.41729 -0.02296,0.85759 0.09502,0.73961 0.29931,0.53527 0.53531,0.2993 0.73964,0.09499 0.85761,-0.02299 0.85762,-0.02302 0.73964,0.09499 0.53529,0.29932 0.29933,0.53528 0.09502,0.73959 -0.02298,0.85759 -0.02298,0.85759 0.09501,0.73959 0.29935,0.53528 0.5353,0.29932 0.73963,0.09498 0.85761,-0.02301 0.8576,-0.02299 0.73964,0.09498 0.53532,0.29931 0.29932,0.53528 0.09502,0.73959 -0.02298,0.85759 -0.02298,0.85759 0.09502,0.73961 0.29933,0.53527 0.53531,0.29932 0.73962,0.09497 0.85762,-0.02299 0.85762,-0.023 0.73963,0.09497 0.53531,0.29932 0.29933,0.53528 0.095,0.73959 -0.02297,0.85759 -0.02298,0.85759 0.09501,0.73961 0.29934,0.53528 0.53531,0.2993 0.73964,0.09498 0.85761,-0.02299 0.8576,-0.02301 0.73964,0.09498 0.53529,0.29932 -0.03305,1.72932"
                     style="fill:none;stroke:#000000;stroke-width:0.3985;stroke-linecap:butt;stroke-linejoin:miter;stroke-miterlimit:10;stroke-dasharray:none;stroke-opacity:1"
                     id="path240" />
                </g>
                <g
                   id="g242">
                  <g
                     id="g244"
                     transform="translate(57.401,-43.15)">
                    <g
                       id="g246">
                      <g
                         id="g248"
                         transform="translate(-63.276,-78.012)">
                        <text
                           xml:space="preserve"
                           transform="matrix(1,0,0,-1,63.276,78.012)"
                           style="font-variant:normal;font-weight:normal;font-size:9.9626px;font-family:CMMI10;-inkscape-font-specification:CMMI10;writing-mode:lr-tb;fill:#000000;fill-opacity:1;fill-rule:nonzero;stroke:none"
                           id="text252"><tspan
                             x="0"
                             y="0"
                             id="tspan250">Z</tspan></text>
                        <g
                           id="g254"
                           transform="translate(63.276,78.012)" />
                      </g>
                    </g>
                    <g
                       id="g256"
                       transform="translate(-57.401,43.15)" />
                  </g>
                </g>
              </g>
              <g
                 id="g258">
                <g
                   id="g260">
                  <g
                     id="g262">
                    <path
                       d="M 58.41316,-56.69254 78.4574,-76.73677"
                       style="fill:none;stroke:#000000;stroke-width:0.3985;stroke-linecap:butt;stroke-linejoin:miter;stroke-miterlimit:10;stroke-dasharray:2.98883, 2.98883;stroke-dashoffset:0;stroke-opacity:1"
                       id="path264" />
                  </g>
                </g>
                <g
                   id="g266">
                  <g
                     id="g268"
                     transform="translate(59.649,-74.523)">
                    <g
                       id="g270">
                      <g
                         id="g272"
                         transform="translate(-65.524,-46.639)">
                        <text
                           xml:space="preserve"
                           transform="matrix(1,0,0,-1,65.524,46.639)"
                           style="font-variant:normal;font-weight:normal;font-size:9.9626px;font-family:CMMI10;-inkscape-font-specification:CMMI10;writing-mode:lr-tb;fill:#000000;fill-opacity:1;fill-rule:nonzero;stroke:none"
                           id="text276"><tspan
                             x="0"
                             y="0"
                             id="tspan274">a</tspan></text>
                        <g
                           id="g278"
                           transform="translate(65.524,46.639)" />
                      </g>
                    </g>
                    <g
                       id="g280"
                       transform="translate(-59.649,74.523)" />
                  </g>
                </g>
              </g>
              <g
                 id="g282">
                <g
                   id="g284">
                  <path
                     d="m 78.4574,-36.6483 11.90408,8.85352"
                     style="fill:none;stroke:#000000;stroke-width:0.3985;stroke-linecap:butt;stroke-linejoin:miter;stroke-miterlimit:10;stroke-dasharray:none;stroke-opacity:1"
                     id="path286" />
                </g>
              </g>
              <g
                 id="g288">
                <g
                   id="g290">
                  <path
                     d="m 78.4574,-36.6483 11.90408,-9.55083"
                     style="fill:none;stroke:#000000;stroke-width:0.3985;stroke-linecap:butt;stroke-linejoin:miter;stroke-miterlimit:10;stroke-dasharray:none;stroke-opacity:1"
                     id="path292" />
                </g>
              </g>
              <g
                 id="g294">
                <g
                   id="g296">
                  <path
                     d="m 78.4574,-76.73677 10.37164,7.50313"
                     style="fill:none;stroke:#000000;stroke-width:0.3985;stroke-linecap:butt;stroke-linejoin:miter;stroke-miterlimit:10;stroke-dasharray:none;stroke-opacity:1"
                     id="path298" />
                </g>
              </g>
              <g
                 id="g300">
                <g
                   id="g302">
                  <path
                     d="m 78.4574,-76.73677 10.37164,-8.11067"
                     style="fill:none;stroke:#000000;stroke-width:0.3985;stroke-linecap:butt;stroke-linejoin:miter;stroke-miterlimit:10;stroke-dasharray:none;stroke-opacity:1"
                     id="path304" />
                </g>
              </g>
            </g>
          </g>
        </g>
      </g>
    </g>
  </g>
</svg>
