<?xml version="1.0" encoding="UTF-8"?>
<!DOCTYPE svg PUBLIC "-//W3C//DTD SVG 1.1//EN" "http://www.w3.org/Graphics/SVG/1.1/DTD/svg11.dtd">
<svg version="1.2" width="110.97mm" height="30.08mm" viewBox="4209 14969 11097 3008" preserveAspectRatio="xMidYMid" fill-rule="evenodd" stroke-width="28.222" stroke-linejoin="round" xmlns="http://www.w3.org/2000/svg" xmlns:ooo="http://xml.openoffice.org/svg/export" xmlns:xlink="http://www.w3.org/1999/xlink" xmlns:presentation="http://sun.com/xmlns/staroffice/presentation" xmlns:smil="http://www.w3.org/2001/SMIL20/" xmlns:anim="urn:oasis:names:tc:opendocument:xmlns:animation:1.0" xml:space="preserve">
 <defs class="ClipPathGroup">
  <clipPath id="presentation_clip_path" clipPathUnits="userSpaceOnUse">
   <rect x="4209" y="14969" width="11097" height="3008"/>
  </clipPath>
  <clipPath id="presentation_clip_path_shrink" clipPathUnits="userSpaceOnUse">
   <rect x="4220" y="14972" width="11075" height="3002"/>
  </clipPath>
 </defs>
 <defs class="TextShapeIndex">
  <g ooo:slide="id1" ooo:id-list="id3 id4 id5 id6 id7 id8 id9"/>
 </defs>
 <defs class="EmbeddedBulletChars">
  <g id="bullet-char-template-57356" transform="scale(0.00048828125,-0.00048828125)">
   <path d="M 580,1141 L 1163,571 580,0 -4,571 580,1141 Z"/>
  </g>
  <g id="bullet-char-template-57354" transform="scale(0.00048828125,-0.00048828125)">
   <path d="M 8,1128 L 1137,1128 1137,0 8,0 8,1128 Z"/>
  </g>
  <g id="bullet-char-template-10146" transform="scale(0.00048828125,-0.00048828125)">
   <path d="M 174,0 L 602,739 174,1481 1456,739 174,0 Z M 1358,739 L 309,1346 659,739 1358,739 Z"/>
  </g>
  <g id="bullet-char-template-10132" transform="scale(0.00048828125,-0.00048828125)">
   <path d="M 2015,739 L 1276,0 717,0 1260,543 174,543 174,936 1260,936 717,1481 1274,1481 2015,739 Z"/>
  </g>
  <g id="bullet-char-template-10007" transform="scale(0.00048828125,-0.00048828125)">
   <path d="M 0,-2 C -7,14 -16,27 -25,37 L 356,567 C 262,823 215,952 215,954 215,979 228,992 255,992 264,992 276,990 289,987 310,991 331,999 354,1012 L 381,999 492,748 772,1049 836,1024 860,1049 C 881,1039 901,1025 922,1006 886,937 835,863 770,784 769,783 710,716 594,584 L 774,223 C 774,196 753,168 711,139 L 727,119 C 717,90 699,76 672,76 641,76 570,178 457,381 L 164,-76 C 142,-110 111,-127 72,-127 30,-127 9,-110 8,-76 1,-67 -2,-52 -2,-32 -2,-23 -1,-13 0,-2 Z"/>
  </g>
  <g id="bullet-char-template-10004" transform="scale(0.00048828125,-0.00048828125)">
   <path d="M 285,-33 C 182,-33 111,30 74,156 52,228 41,333 41,471 41,549 55,616 82,672 116,743 169,778 240,778 293,778 328,747 346,684 L 369,508 C 377,444 397,411 428,410 L 1163,1116 C 1174,1127 1196,1133 1229,1133 1271,1133 1292,1118 1292,1087 L 1292,965 C 1292,929 1282,901 1262,881 L 442,47 C 390,-6 338,-33 285,-33 Z"/>
  </g>
  <g id="bullet-char-template-9679" transform="scale(0.00048828125,-0.00048828125)">
   <path d="M 813,0 C 632,0 489,54 383,161 276,268 223,411 223,592 223,773 276,916 383,1023 489,1130 632,1184 813,1184 992,1184 1136,1130 1245,1023 1353,916 1407,772 1407,592 1407,412 1353,268 1245,161 1136,54 992,0 813,0 Z"/>
  </g>
  <g id="bullet-char-template-8226" transform="scale(0.00048828125,-0.00048828125)">
   <path d="M 346,457 C 273,457 209,483 155,535 101,586 74,649 74,723 74,796 101,859 155,911 209,963 273,989 346,989 419,989 480,963 531,910 582,859 608,796 608,723 608,648 583,586 532,535 482,483 420,457 346,457 Z"/>
  </g>
  <g id="bullet-char-template-8211" transform="scale(0.00048828125,-0.00048828125)">
   <path d="M -4,459 L 1135,459 1135,606 -4,606 -4,459 Z"/>
  </g>
  <g id="bullet-char-template-61548" transform="scale(0.00048828125,-0.00048828125)">
   <path d="M 173,740 C 173,903 231,1043 346,1159 462,1274 601,1332 765,1332 928,1332 1067,1274 1183,1159 1299,1043 1357,903 1357,740 1357,577 1299,437 1183,322 1067,206 928,148 765,148 601,148 462,206 346,322 231,437 173,577 173,740 Z"/>
  </g>
 </defs>
 <defs class="TextEmbeddedBitmaps"/>
 <g class="SlideGroup">
  <g>
   <g id="container-id1">
    <g id="id1" class="Slide" clip-path="url(#presentation_clip_path)">
     <g class="Page">
      <g class="com.sun.star.drawing.CustomShape">
       <g id="id3">
        <rect class="BoundingBox" stroke="none" fill="none" x="4208" y="14969" width="11099" height="3010"/>
        <g>
         <defs>
          <linearGradient id="gradient1" x1="4235" y1="16469" x2="15280" y2="16469" gradientUnits="userSpaceOnUse">
           <stop offset="0" style="stop-color:rgb(104,142,177)"/>
           <stop offset="1" style="stop-color:rgb(186,209,231)"/>
          </linearGradient>
         </defs>
         <path style="fill:url(#gradient1)" d="M 4235,15021 L 4593,15022 4593,15646 5403,15732 5403,15026 5762,15028 5762,16941 5403,16846 5403,16027 4593,15907 4593,16631 4235,16536 4235,15021 Z M 5961,15028 L 7246,15034 7246,15407 6320,15364 6320,15829 7208,15922 7208,16294 6320,16162 6320,16756 7269,16968 7269,17341 5961,16994 5961,15028 Z M 7755,15424 L 7755,16158 8019,16191 8056,16194 8091,16193 8124,16190 8155,16184 8169,16179 8183,16173 8196,16166 8209,16158 8221,16151 8233,16141 8244,16132 8254,16121 8263,16109 8272,16096 8281,16083 8289,16069 8296,16055 8302,16039 8308,16023 8314,16006 8322,15969 8328,15928 8333,15885 8333,15839 8333,15793 8328,15750 8322,15709 8314,15671 8308,15653 8302,15636 8296,15619 8289,15603 8281,15587 8272,15573 8263,15558 8254,15545 8244,15533 8233,15521 8221,15511 8209,15500 8196,15491 8183,15482 8155,15467 8124,15454 8091,15446 8056,15439 8019,15437 7755,15424 Z M 7396,15035 L 8019,15037 8100,15041 8176,15051 8247,15067 8313,15090 8375,15119 8404,15138 8431,15156 8457,15177 8483,15200 8506,15224 8529,15249 8550,15277 8571,15306 8589,15336 8606,15369 8622,15401 8637,15437 8650,15474 8662,15512 8672,15552 8682,15592 8695,15680 8704,15772 8706,15871 8704,15969 8695,16062 8682,16147 8672,16187 8662,16225 8650,16261 8637,16295 8622,16329 8606,16360 8589,16388 8571,16415 8550,16441 8529,16465 8506,16487 8483,16507 8457,16524 8431,16540 8404,16555 8375,16568 8313,16587 8247,16598 8176,16602 8100,16599 8019,16589 7755,16545 7755,17470 7396,17375 7396,15035 Z M 8806,15041 L 9164,15042 9164,16129 9757,16191 9974,16168 9974,15044 10333,15043 10333,17848 9974,17943 9974,16638 9757,16670 9164,16583 9164,17843 8806,17748 8806,15041 Z M 10532,15042 L 11817,15036 11817,15428 10891,15471 10891,16072 11779,15978 11779,16371 10891,16503 10891,17270 11840,17058 11840,17448 10532,17795 10532,15042 Z M 12994,16151 L 12996,16150 12997,16149 12999,16148 13001,16146 13003,16146 13005,16146 13007,16145 13009,16146 13014,16147 13020,16149 13026,16152 13032,16156 13046,16166 13062,16180 13080,16197 13100,16218 13122,16242 13142,16268 13163,16296 13183,16325 13224,16391 13265,16463 13559,16992 13169,17096 12916,16614 12894,16573 12873,16536 12853,16502 12832,16472 12812,16447 12793,16425 12773,16408 12764,16400 12754,16394 12745,16390 12735,16385 12714,16376 12691,16369 12666,16366 12639,16364 12610,16364 12580,16366 12548,16370 12326,16406 12326,17319 11967,17414 11967,15035 12590,15033 12672,15035 12749,15042 12821,15055 12888,15072 12949,15094 12978,15106 13005,15121 13032,15136 13057,15151 13081,15169 13103,15187 13124,15206 13144,15227 13162,15249 13179,15272 13194,15296 13209,15322 13222,15348 13233,15376 13244,15405 13253,15434 13266,15498 13275,15567 13277,15640 13276,15689 13272,15736 13265,15782 13255,15826 13242,15868 13226,15909 13207,15948 13185,15986 13162,16021 13138,16052 13116,16079 13104,16091 13092,16101 13080,16111 13067,16120 13055,16128 13044,16135 13032,16140 13019,16145 13007,16148 12994,16151 Z M 12326,15398 L 12326,16042 12590,16010 12629,16005 12666,15997 12699,15986 12731,15974 12759,15960 12772,15952 12785,15944 12797,15936 12808,15926 12818,15916 12828,15906 12838,15895 12846,15884 12855,15872 12861,15860 12868,15847 12875,15834 12881,15819 12886,15805 12890,15791 12894,15775 12899,15742 12904,15708 12905,15671 12904,15634 12899,15601 12894,15569 12890,15554 12886,15540 12881,15527 12875,15514 12868,15502 12861,15490 12855,15478 12846,15469 12838,15458 12828,15449 12818,15441 12808,15433 12797,15426 12785,15419 12772,15413 12759,15407 12731,15398 12699,15392 12666,15387 12629,15385 12590,15386 12326,15398 Z M 14759,15413 L 14740,15395 14721,15378 14701,15363 14679,15348 14657,15336 14635,15323 14612,15313 14587,15303 14562,15295 14536,15288 14510,15282 14482,15278 14454,15274 14424,15272 14364,15272 14304,15277 14274,15282 14246,15288 14218,15295 14192,15303 14166,15313 14140,15324 14116,15337 14092,15351 14069,15367 14047,15383 14026,15402 14006,15421 13985,15442 13967,15465 13949,15489 13932,15514 13917,15540 13902,15568 13877,15625 13856,15687 13839,15754 13828,15824 13822,15899 13819,15978 13822,16056 13828,16128 13839,16195 13856,16257 13877,16313 13902,16364 13917,16387 13932,16409 13949,16429 13967,16448 13985,16466 14006,16482 14026,16496 14047,16508 14069,16519 14092,16529 14116,16537 14140,16542 14166,16547 14191,16550 14218,16551 14246,16551 14274,16549 14303,16546 14364,16535 14424,16519 14454,16508 14482,16497 14509,16485 14536,16472 14562,16459 14587,16443 14612,16427 14634,16410 14657,16392 14679,16373 14701,16353 14721,16332 14740,16310 14759,16287 14777,16264 14794,16239 14809,16214 14823,16189 14849,16136 14869,16080 14885,16022 14897,15961 14904,15898 14907,15831 14904,15765 14897,15702 14886,15644 14870,15590 14849,15541 14823,15494 14809,15472 14794,15451 14777,15431 14759,15413 Z M 14364,14996 L 14466,14999 14562,15011 14607,15019 14652,15029 14696,15041 14738,15054 14779,15069 14818,15086 14857,15105 14894,15124 14929,15145 14964,15169 14997,15193 15029,15219 15060,15246 15088,15275 15114,15304 15139,15334 15161,15365 15181,15398 15217,15465 15244,15537 15263,15613 15274,15694 15279,15781 15274,15867 15263,15951 15244,16032 15217,16112 15181,16189 15161,16226 15139,16263 15114,16300 15088,16336 15060,16372 15029,16407 14997,16442 14964,16476 14930,16508 14894,16539 14857,16569 14818,16598 14779,16625 14738,16651 14696,16676 14652,16700 14607,16722 14562,16743 14466,16780 14364,16811 14262,16835 14166,16849 14120,16852 14074,16853 14031,16851 13989,16847 13947,16841 13907,16831 13869,16819 13832,16804 13796,16787 13761,16767 13728,16744 13696,16719 13666,16691 13638,16661 13611,16629 13587,16595 13565,16558 13544,16520 13509,16437 13482,16346 13462,16247 13450,16142 13446,16028 13450,15914 13461,15804 13482,15700 13509,15602 13544,15509 13565,15465 13587,15422 13611,15381 13638,15342 13666,15304 13696,15268 13728,15234 13761,15203 13796,15173 13832,15146 13869,15121 13907,15099 13947,15079 13989,15061 14031,15045 14074,15032 14119,15021 14166,15012 14262,14999 14364,14996 Z"/>
        </g>
        <path fill="none" stroke="rgb(0,0,0)" stroke-width="53" stroke-linejoin="miter" d="M 4235,15021 L 4593,15022 4593,15646 5403,15732 5403,15026 5762,15028 5762,16941 5403,16846 5403,16027 4593,15907 4593,16631 4235,16536 4235,15021 Z"/>
        <path fill="none" stroke="rgb(0,0,0)" stroke-width="53" stroke-linejoin="miter" d="M 5961,15028 L 7246,15034 7246,15407 6320,15364 6320,15829 7208,15922 7208,16294 6320,16162 6320,16756 7269,16968 7269,17341 5961,16994 5961,15028 Z"/>
        <path fill="none" stroke="rgb(0,0,0)" stroke-width="53" stroke-linejoin="miter" d="M 7755,15424 L 7755,16158 8019,16191 8056,16194 8091,16193 8124,16190 8155,16184 8169,16179 8183,16173 8196,16166 8209,16158 8221,16151 8233,16141 8244,16132 8254,16121 8263,16109 8272,16096 8281,16083 8289,16069 8296,16055 8302,16039 8308,16023 8314,16006 8322,15969 8328,15928 8333,15885 8333,15839 8333,15793 8328,15750 8322,15709 8314,15671 8308,15653 8302,15636 8296,15619 8289,15603 8281,15587 8272,15573 8263,15558 8254,15545 8244,15533 8233,15521 8221,15511 8209,15500 8196,15491 8183,15482 8155,15467 8124,15454 8091,15446 8056,15439 8019,15437 7755,15424 Z"/>
        <path fill="none" stroke="rgb(0,0,0)" stroke-width="53" stroke-linejoin="miter" d="M 7396,15035 L 8019,15037 8100,15041 8176,15051 8247,15067 8313,15090 8375,15119 8404,15138 8431,15156 8457,15177 8483,15200 8506,15224 8529,15249 8550,15277 8571,15306 8589,15336 8606,15369 8622,15401 8637,15437 8650,15474 8662,15512 8672,15552 8682,15592 8695,15680 8704,15772 8706,15871 8704,15969 8695,16062 8682,16147 8672,16187 8662,16225 8650,16261 8637,16295 8622,16329 8606,16360 8589,16388 8571,16415 8550,16441 8529,16465 8506,16487 8483,16507 8457,16524 8431,16540 8404,16555 8375,16568 8313,16587 8247,16598 8176,16602 8100,16599 8019,16589 7755,16545 7755,17470 7396,17375 7396,15035 Z"/>
        <path fill="none" stroke="rgb(0,0,0)" stroke-width="53" stroke-linejoin="miter" d="M 8806,15041 L 9164,15042 9164,16129 9757,16191 9974,16168 9974,15044 10333,15043 10333,17848 9974,17943 9974,16638 9757,16670 9164,16583 9164,17843 8806,17748 8806,15041 Z"/>
        <path fill="none" stroke="rgb(0,0,0)" stroke-width="53" stroke-linejoin="miter" d="M 10532,15042 L 11817,15036 11817,15428 10891,15471 10891,16072 11779,15978 11779,16371 10891,16503 10891,17270 11840,17058 11840,17448 10532,17795 10532,15042 Z"/>
        <path fill="none" stroke="rgb(0,0,0)" stroke-width="53" stroke-linejoin="miter" d="M 12994,16151 L 12996,16150 12997,16149 12999,16148 13001,16146 13003,16146 13005,16146 13007,16145 13009,16146 13014,16147 13020,16149 13026,16152 13032,16156 13046,16166 13062,16180 13080,16197 13100,16218 13122,16242 13142,16268 13163,16296 13183,16325 13224,16391 13265,16463 13559,16992 13169,17096 12916,16614 12894,16573 12873,16536 12853,16502 12832,16472 12812,16447 12793,16425 12773,16408 12764,16400 12754,16394 12745,16390 12735,16385 12714,16376 12691,16369 12666,16366 12639,16364 12610,16364 12580,16366 12548,16370 12326,16406 12326,17319 11967,17414 11967,15035 12590,15033 12672,15035 12749,15042 12821,15055 12888,15072 12949,15094 12978,15106 13005,15121 13032,15136 13057,15151 13081,15169 13103,15187 13124,15206 13144,15227 13162,15249 13179,15272 13194,15296 13209,15322 13222,15348 13233,15376 13244,15405 13253,15434 13266,15498 13275,15567 13277,15640 13276,15689 13272,15736 13265,15782 13255,15826 13242,15868 13226,15909 13207,15948 13185,15986 13162,16021 13138,16052 13116,16079 13104,16091 13092,16101 13080,16111 13067,16120 13055,16128 13044,16135 13032,16140 13019,16145 13007,16148 12994,16151 Z"/>
        <path fill="none" stroke="rgb(0,0,0)" stroke-width="53" stroke-linejoin="miter" d="M 12326,15398 L 12326,16042 12590,16010 12629,16005 12666,15997 12699,15986 12731,15974 12759,15960 12772,15952 12785,15944 12797,15936 12808,15926 12818,15916 12828,15906 12838,15895 12846,15884 12855,15872 12861,15860 12868,15847 12875,15834 12881,15819 12886,15805 12890,15791 12894,15775 12899,15742 12904,15708 12905,15671 12904,15634 12899,15601 12894,15569 12890,15554 12886,15540 12881,15527 12875,15514 12868,15502 12861,15490 12855,15478 12846,15469 12838,15458 12828,15449 12818,15441 12808,15433 12797,15426 12785,15419 12772,15413 12759,15407 12731,15398 12699,15392 12666,15387 12629,15385 12590,15386 12326,15398 Z"/>
        <path fill="none" stroke="rgb(0,0,0)" stroke-width="53" stroke-linejoin="miter" d="M 14759,15413 L 14740,15395 14721,15378 14701,15363 14679,15348 14657,15336 14635,15323 14612,15313 14587,15303 14562,15295 14536,15288 14510,15282 14482,15278 14454,15274 14424,15272 14364,15272 14304,15277 14274,15282 14246,15288 14218,15295 14192,15303 14166,15313 14140,15324 14116,15337 14092,15351 14069,15367 14047,15383 14026,15402 14006,15421 13985,15442 13967,15465 13949,15489 13932,15514 13917,15540 13902,15568 13877,15625 13856,15687 13839,15754 13828,15824 13822,15899 13819,15978 13822,16056 13828,16128 13839,16195 13856,16257 13877,16313 13902,16364 13917,16387 13932,16409 13949,16429 13967,16448 13985,16466 14006,16482 14026,16496 14047,16508 14069,16519 14092,16529 14116,16537 14140,16542 14166,16547 14191,16550 14218,16551 14246,16551 14274,16549 14303,16546 14364,16535 14424,16519 14454,16508 14482,16497 14509,16485 14536,16472 14562,16459 14587,16443 14612,16427 14634,16410 14657,16392 14679,16373 14701,16353 14721,16332 14740,16310 14759,16287 14777,16264 14794,16239 14809,16214 14823,16189 14849,16136 14869,16080 14885,16022 14897,15961 14904,15898 14907,15831 14904,15765 14897,15702 14886,15644 14870,15590 14849,15541 14823,15494 14809,15472 14794,15451 14777,15431 14759,15413 Z"/>
        <path fill="none" stroke="rgb(0,0,0)" stroke-width="53" stroke-linejoin="miter" d="M 14364,14996 L 14466,14999 14562,15011 14607,15019 14652,15029 14696,15041 14738,15054 14779,15069 14818,15086 14857,15105 14894,15124 14929,15145 14964,15169 14997,15193 15029,15219 15060,15246 15088,15275 15114,15304 15139,15334 15161,15365 15181,15398 15217,15465 15244,15537 15263,15613 15274,15694 15279,15781 15274,15867 15263,15951 15244,16032 15217,16112 15181,16189 15161,16226 15139,16263 15114,16300 15088,16336 15060,16372 15029,16407 14997,16442 14964,16476 14930,16508 14894,16539 14857,16569 14818,16598 14779,16625 14738,16651 14696,16676 14652,16700 14607,16722 14562,16743 14466,16780 14364,16811 14262,16835 14166,16849 14120,16852 14074,16853 14031,16851 13989,16847 13947,16841 13907,16831 13869,16819 13832,16804 13796,16787 13761,16767 13728,16744 13696,16719 13666,16691 13638,16661 13611,16629 13587,16595 13565,16558 13544,16520 13509,16437 13482,16346 13462,16247 13450,16142 13446,16028 13450,15914 13461,15804 13482,15700 13509,15602 13544,15509 13565,15465 13587,15422 13611,15381 13638,15342 13666,15304 13696,15268 13728,15234 13761,15203 13796,15173 13832,15146 13869,15121 13907,15099 13947,15079 13989,15061 14031,15045 14074,15032 14119,15021 14166,15012 14262,14999 14364,14996 Z"/>
       </g>
      </g>
      <g class="com.sun.star.drawing.CustomShape">
       <g id="id4">
        <rect class="BoundingBox" stroke="none" fill="none" x="13511" y="15145" width="1651" height="1677"/>
        <path fill="rgb(186,209,231)" stroke="none" d="M 14556,15146 C 15005,15139 15253,15497 15129,15972 15004,16447 14565,16814 14116,16820 13667,16827 13420,16469 13544,15994 13669,15519 14107,15152 14556,15146 Z M 13764,15157 L 13764,15157 Z M 14911,16810 L 14911,16810 Z"/>
       </g>
      </g>
      <g class="com.sun.star.drawing.CustomShape">
       <g id="id5">
        <rect class="BoundingBox" stroke="none" fill="none" x="13477" y="15031" width="1327" height="1359"/>
        <path fill="rgb(186,209,231)" stroke="none" d="M 14253,15052 C 14618,14987 14847,15222 14783,15595 14719,15968 14391,16303 14027,16368 13662,16433 13433,16198 13497,15825 13561,15452 13889,15117 14253,15052 Z M 13611,15167 L 13611,15167 Z M 14670,16254 L 14670,16254 Z"/>
        <path fill="none" stroke="rgb(186,209,231)" stroke-width="18" stroke-linejoin="round" d="M 14253,15052 C 14618,14987 14847,15222 14783,15595 14719,15968 14391,16303 14027,16368 13662,16433 13433,16198 13497,15825 13561,15452 13889,15117 14253,15052 Z"/>
       </g>
      </g>
      <g class="Group">
       <g class="com.sun.star.drawing.CustomShape">
        <g id="id6">
         <rect class="BoundingBox" stroke="none" fill="none" x="13608" y="15394" width="1484" height="1021"/>
         <path fill="none" stroke="rgb(255,255,255)" stroke-width="53" stroke-linejoin="round" d="M 14250,15744 C 14600,15487 14909,15359 14964,15450 15020,15541 14796,15807 14447,16065 14098,16323 13788,16449 13733,16358 13677,16267 13901,16002 14250,15744 Z"/>
        </g>
       </g>
       <g class="com.sun.star.drawing.CustomShape">
        <g id="id7">
         <rect class="BoundingBox" stroke="none" fill="none" x="14111" y="15130" width="463" height="1540"/>
         <path fill="none" stroke="rgb(255,255,255)" stroke-width="53" stroke-linejoin="round" d="M 14145,15934 C 14149,15533 14237,15211 14348,15192 14459,15173 14542,15465 14538,15866 14534,16267 14445,16589 14334,16608 14223,16627 14141,16335 14145,15934 Z"/>
        </g>
       </g>
       <g class="com.sun.star.drawing.CustomShape">
        <g id="id8">
         <rect class="BoundingBox" stroke="none" fill="none" x="13714" y="15431" width="1264" height="944"/>
         <path fill="none" stroke="rgb(255,255,255)" stroke-width="53" stroke-linejoin="round" d="M 14242,16083 C 13905,15934 13692,15742 13750,15640 13809,15538 14112,15575 14449,15724 14786,15874 14999,16066 14941,16168 14882,16270 14579,16233 14242,16083 Z"/>
        </g>
       </g>
       <g class="com.sun.star.drawing.CustomShape">
        <g id="id9">
         <rect class="BoundingBox" stroke="none" fill="none" x="14253" y="15814" width="195" height="182"/>
         <path fill="rgb(255,255,255)" stroke="none" d="M 14349,15825 C 14398,15817 14437,15844 14437,15889 14437,15934 14398,15976 14349,15984 14300,15993 14262,15964 14262,15919 14262,15874 14300,15833 14349,15825 Z M 14262,15840 L 14262,15840 Z M 14438,15970 L 14438,15970 Z"/>
         <path fill="none" stroke="rgb(255,255,255)" stroke-width="18" stroke-linejoin="round" d="M 14349,15825 C 14398,15817 14437,15844 14437,15889 14437,15934 14398,15976 14349,15984 14300,15993 14262,15964 14262,15919 14262,15874 14300,15833 14349,15825 Z"/>
        </g>
       </g>
      </g>
     </g>
    </g>
   </g>
  </g>
 </g>
</svg>