<?xml version="1.0" encoding="UTF-8"?>
<!DOCTYPE svg PUBLIC "-//W3C//DTD SVG 1.1//EN" "http://www.w3.org/Graphics/SVG/1.1/DTD/svg11.dtd">
<svg version="1.2" width="110.97mm" height="37.55mm" viewBox="4173 1841 11097 3755" preserveAspectRatio="xMidYMid" fill-rule="evenodd" stroke-width="28.222" stroke-linejoin="round" xmlns="http://www.w3.org/2000/svg" xmlns:ooo="http://xml.openoffice.org/svg/export" xmlns:xlink="http://www.w3.org/1999/xlink" xmlns:presentation="http://sun.com/xmlns/staroffice/presentation" xmlns:smil="http://www.w3.org/2001/SMIL20/" xmlns:anim="urn:oasis:names:tc:opendocument:xmlns:animation:1.0" xml:space="preserve">
 <defs class="ClipPathGroup">
  <clipPath id="presentation_clip_path" clipPathUnits="userSpaceOnUse">
   <rect x="4173" y="1841" width="11097" height="3755"/>
  </clipPath>
  <clipPath id="presentation_clip_path_shrink" clipPathUnits="userSpaceOnUse">
   <rect x="4184" y="1844" width="11075" height="3748"/>
  </clipPath>
 </defs>
 <defs class="TextShapeIndex">
  <g ooo:slide="id1" ooo:id-list="id3 id4 id5 id6 id7 id8 id9 id10"/>
 </defs>
 <defs class="EmbeddedBulletChars">
  <g id="bullet-char-template-57356" transform="scale(0.00048828125,-0.00048828125)">
   <path d="M 580,1141 L 1163,571 580,0 -4,571 580,1141 Z"/>
  </g>
  <g id="bullet-char-template-57354" transform="scale(0.00048828125,-0.00048828125)">
   <path d="M 8,1128 L 1137,1128 1137,0 8,0 8,1128 Z"/>
  </g>
  <g id="bullet-char-template-10146" transform="scale(0.00048828125,-0.00048828125)">
   <path d="M 174,0 L 602,739 174,1481 1456,739 174,0 Z M 1358,739 L 309,1346 659,739 1358,739 Z"/>
  </g>
  <g id="bullet-char-template-10132" transform="scale(0.00048828125,-0.00048828125)">
   <path d="M 2015,739 L 1276,0 717,0 1260,543 174,543 174,936 1260,936 717,1481 1274,1481 2015,739 Z"/>
  </g>
  <g id="bullet-char-template-10007" transform="scale(0.00048828125,-0.00048828125)">
   <path d="M 0,-2 C -7,14 -16,27 -25,37 L 356,567 C 262,823 215,952 215,954 215,979 228,992 255,992 264,992 276,990 289,987 310,991 331,999 354,1012 L 381,999 492,748 772,1049 836,1024 860,1049 C 881,1039 901,1025 922,1006 886,937 835,863 770,784 769,783 710,716 594,584 L 774,223 C 774,196 753,168 711,139 L 727,119 C 717,90 699,76 672,76 641,76 570,178 457,381 L 164,-76 C 142,-110 111,-127 72,-127 30,-127 9,-110 8,-76 1,-67 -2,-52 -2,-32 -2,-23 -1,-13 0,-2 Z"/>
  </g>
  <g id="bullet-char-template-10004" transform="scale(0.00048828125,-0.00048828125)">
   <path d="M 285,-33 C 182,-33 111,30 74,156 52,228 41,333 41,471 41,549 55,616 82,672 116,743 169,778 240,778 293,778 328,747 346,684 L 369,508 C 377,444 397,411 428,410 L 1163,1116 C 1174,1127 1196,1133 1229,1133 1271,1133 1292,1118 1292,1087 L 1292,965 C 1292,929 1282,901 1262,881 L 442,47 C 390,-6 338,-33 285,-33 Z"/>
  </g>
  <g id="bullet-char-template-9679" transform="scale(0.00048828125,-0.00048828125)">
   <path d="M 813,0 C 632,0 489,54 383,161 276,268 223,411 223,592 223,773 276,916 383,1023 489,1130 632,1184 813,1184 992,1184 1136,1130 1245,1023 1353,916 1407,772 1407,592 1407,412 1353,268 1245,161 1136,54 992,0 813,0 Z"/>
  </g>
  <g id="bullet-char-template-8226" transform="scale(0.00048828125,-0.00048828125)">
   <path d="M 346,457 C 273,457 209,483 155,535 101,586 74,649 74,723 74,796 101,859 155,911 209,963 273,989 346,989 419,989 480,963 531,910 582,859 608,796 608,723 608,648 583,586 532,535 482,483 420,457 346,457 Z"/>
  </g>
  <g id="bullet-char-template-8211" transform="scale(0.00048828125,-0.00048828125)">
   <path d="M -4,459 L 1135,459 1135,606 -4,606 -4,459 Z"/>
  </g>
  <g id="bullet-char-template-61548" transform="scale(0.00048828125,-0.00048828125)">
   <path d="M 173,740 C 173,903 231,1043 346,1159 462,1274 601,1332 765,1332 928,1332 1067,1274 1183,1159 1299,1043 1357,903 1357,740 1357,577 1299,437 1183,322 1067,206 928,148 765,148 601,148 462,206 346,322 231,437 173,577 173,740 Z"/>
  </g>
 </defs>
 <defs class="TextEmbeddedBitmaps"/>
 <g class="SlideGroup">
  <g>
   <g id="container-id1">
    <g id="id1" class="Slide" clip-path="url(#presentation_clip_path)">
     <g class="Page">
      <g class="com.sun.star.drawing.CustomShape">
       <g id="id3">
        <rect class="BoundingBox" stroke="none" fill="none" x="4172" y="2587" width="11099" height="3010"/>
        <path fill="rgb(152,174,207)" stroke="none" d="M 4199,2639 L 4557,2640 4557,3264 5367,3350 5367,2644 5726,2646 5726,4559 5367,4464 5367,3645 4557,3525 4557,4249 4199,4154 4199,2639 Z M 5925,2646 L 7210,2652 7210,3025 6284,2982 6284,3447 7172,3540 7172,3912 6284,3780 6284,4374 7233,4586 7233,4959 5925,4612 5925,2646 Z M 7719,3042 L 7719,3776 7983,3809 8020,3812 8055,3811 8088,3808 8119,3802 8133,3797 8147,3791 8160,3784 8173,3776 8185,3769 8197,3759 8208,3750 8218,3739 8227,3727 8236,3714 8245,3701 8253,3687 8260,3673 8266,3657 8272,3641 8278,3624 8286,3587 8292,3546 8297,3503 8297,3457 8297,3411 8292,3368 8286,3327 8278,3289 8272,3271 8266,3254 8260,3237 8253,3221 8245,3205 8236,3191 8227,3176 8218,3163 8208,3151 8197,3139 8185,3129 8173,3118 8160,3109 8147,3100 8119,3085 8088,3072 8055,3064 8020,3057 7983,3055 7719,3042 Z M 7360,2653 L 7983,2655 8064,2659 8140,2669 8211,2685 8277,2708 8339,2737 8368,2756 8395,2774 8421,2795 8447,2818 8470,2842 8493,2867 8514,2895 8535,2924 8553,2954 8570,2987 8586,3019 8601,3055 8614,3092 8626,3130 8636,3170 8646,3210 8659,3298 8668,3390 8670,3489 8668,3587 8659,3680 8646,3765 8636,3805 8626,3843 8614,3879 8601,3913 8586,3947 8570,3978 8553,4006 8535,4033 8514,4059 8493,4083 8470,4105 8447,4125 8421,4142 8395,4158 8368,4173 8339,4186 8277,4205 8211,4216 8140,4220 8064,4217 7983,4207 7719,4163 7719,5088 7360,4993 7360,2653 Z M 8770,2659 L 9128,2660 9128,3747 9721,3809 9938,3786 9938,2662 10297,2661 10297,5466 9938,5561 9938,4256 9721,4288 9128,4201 9128,5461 8770,5366 8770,2659 Z M 10496,2660 L 11781,2654 11781,3046 10855,3089 10855,3690 11743,3596 11743,3989 10855,4121 10855,4888 11804,4676 11804,5066 10496,5413 10496,2660 Z M 12958,3769 L 12960,3768 12961,3767 12963,3766 12965,3764 12967,3764 12969,3764 12971,3763 12973,3764 12978,3765 12984,3767 12990,3770 12996,3774 13010,3784 13026,3798 13044,3815 13064,3836 13086,3860 13106,3886 13127,3914 13147,3943 13188,4009 13229,4081 13523,4610 13133,4714 12880,4232 12858,4191 12837,4154 12817,4120 12796,4090 12776,4065 12757,4043 12737,4026 12728,4018 12718,4012 12709,4008 12699,4003 12678,3994 12655,3987 12630,3984 12603,3982 12574,3982 12544,3984 12512,3988 12290,4024 12290,4937 11931,5032 11931,2653 12554,2651 12636,2653 12713,2660 12785,2673 12852,2690 12913,2712 12942,2724 12969,2739 12996,2754 13021,2769 13045,2787 13067,2805 13088,2824 13108,2845 13126,2867 13143,2890 13158,2914 13173,2940 13186,2966 13197,2994 13208,3023 13217,3052 13230,3116 13239,3185 13241,3258 13240,3307 13236,3354 13229,3400 13219,3444 13206,3486 13190,3527 13171,3566 13149,3604 13126,3639 13102,3670 13080,3697 13068,3709 13056,3719 13044,3729 13031,3738 13019,3746 13008,3753 12996,3758 12983,3763 12971,3766 12958,3769 Z M 12290,3016 L 12290,3660 12554,3628 12593,3623 12630,3615 12663,3604 12695,3592 12723,3578 12736,3570 12749,3562 12761,3554 12772,3544 12782,3534 12792,3524 12802,3513 12810,3502 12819,3490 12825,3478 12832,3465 12839,3452 12845,3437 12850,3423 12854,3409 12858,3393 12863,3360 12868,3326 12869,3289 12868,3252 12863,3219 12858,3187 12854,3172 12850,3158 12845,3145 12839,3132 12832,3120 12825,3108 12819,3096 12810,3087 12802,3076 12792,3067 12782,3059 12772,3051 12761,3044 12749,3037 12736,3031 12723,3025 12695,3016 12663,3010 12630,3005 12593,3003 12554,3004 12290,3016 Z M 14723,3031 L 14704,3013 14685,2996 14665,2981 14643,2966 14621,2954 14599,2941 14576,2931 14551,2921 14526,2913 14500,2906 14474,2900 14446,2896 14418,2892 14388,2890 14328,2890 14268,2895 14238,2900 14210,2906 14182,2913 14156,2921 14130,2931 14104,2942 14080,2955 14056,2969 14033,2985 14011,3001 13990,3020 13970,3039 13949,3060 13931,3083 13913,3107 13896,3132 13881,3158 13866,3186 13841,3243 13820,3305 13803,3372 13792,3442 13786,3517 13783,3596 13786,3674 13792,3746 13803,3813 13820,3875 13841,3931 13866,3982 13881,4005 13896,4027 13913,4047 13931,4066 13949,4084 13970,4100 13990,4114 14011,4126 14033,4137 14056,4147 14080,4155 14104,4160 14130,4165 14155,4168 14182,4169 14210,4169 14238,4167 14267,4164 14328,4153 14388,4137 14418,4126 14446,4115 14473,4103 14500,4090 14526,4077 14551,4061 14576,4045 14598,4028 14621,4010 14643,3991 14665,3971 14685,3950 14704,3928 14723,3905 14741,3882 14758,3857 14773,3832 14787,3807 14813,3754 14833,3698 14849,3640 14861,3579 14868,3516 14871,3449 14868,3383 14861,3320 14850,3262 14834,3208 14813,3159 14787,3112 14773,3090 14758,3069 14741,3049 14723,3031 Z M 14328,2614 L 14430,2617 14526,2629 14571,2637 14616,2647 14660,2659 14702,2672 14743,2687 14782,2704 14821,2723 14858,2742 14893,2763 14928,2787 14961,2811 14993,2837 15024,2864 15052,2893 15078,2922 15103,2952 15125,2983 15145,3016 15181,3083 15208,3155 15227,3231 15238,3312 15243,3399 15238,3485 15227,3569 15208,3650 15181,3730 15145,3807 15125,3844 15103,3881 15078,3918 15052,3954 15024,3990 14993,4025 14961,4060 14928,4094 14894,4126 14858,4157 14821,4187 14782,4216 14743,4243 14702,4269 14660,4294 14616,4318 14571,4340 14526,4361 14430,4398 14328,4429 14226,4453 14130,4467 14084,4470 14038,4471 13995,4469 13953,4465 13911,4459 13871,4449 13833,4437 13796,4422 13760,4405 13725,4385 13692,4362 13660,4337 13630,4309 13602,4279 13575,4247 13551,4213 13529,4176 13508,4138 13473,4055 13446,3964 13426,3865 13414,3760 13410,3646 13414,3532 13425,3422 13446,3318 13473,3220 13508,3127 13529,3083 13551,3040 13575,2999 13602,2960 13630,2922 13660,2886 13692,2852 13725,2821 13760,2791 13796,2764 13833,2739 13871,2717 13911,2697 13953,2679 13995,2663 14038,2650 14083,2639 14130,2630 14226,2617 14328,2614 Z"/>
        <path fill="none" stroke="rgb(0,0,0)" stroke-width="53" stroke-linejoin="miter" d="M 4199,2639 L 4557,2640 4557,3264 5367,3350 5367,2644 5726,2646 5726,4559 5367,4464 5367,3645 4557,3525 4557,4249 4199,4154 4199,2639 Z"/>
        <path fill="none" stroke="rgb(0,0,0)" stroke-width="53" stroke-linejoin="miter" d="M 5925,2646 L 7210,2652 7210,3025 6284,2982 6284,3447 7172,3540 7172,3912 6284,3780 6284,4374 7233,4586 7233,4959 5925,4612 5925,2646 Z"/>
        <path fill="none" stroke="rgb(0,0,0)" stroke-width="53" stroke-linejoin="miter" d="M 7719,3042 L 7719,3776 7983,3809 8020,3812 8055,3811 8088,3808 8119,3802 8133,3797 8147,3791 8160,3784 8173,3776 8185,3769 8197,3759 8208,3750 8218,3739 8227,3727 8236,3714 8245,3701 8253,3687 8260,3673 8266,3657 8272,3641 8278,3624 8286,3587 8292,3546 8297,3503 8297,3457 8297,3411 8292,3368 8286,3327 8278,3289 8272,3271 8266,3254 8260,3237 8253,3221 8245,3205 8236,3191 8227,3176 8218,3163 8208,3151 8197,3139 8185,3129 8173,3118 8160,3109 8147,3100 8119,3085 8088,3072 8055,3064 8020,3057 7983,3055 7719,3042 Z"/>
        <path fill="none" stroke="rgb(0,0,0)" stroke-width="53" stroke-linejoin="miter" d="M 7360,2653 L 7983,2655 8064,2659 8140,2669 8211,2685 8277,2708 8339,2737 8368,2756 8395,2774 8421,2795 8447,2818 8470,2842 8493,2867 8514,2895 8535,2924 8553,2954 8570,2987 8586,3019 8601,3055 8614,3092 8626,3130 8636,3170 8646,3210 8659,3298 8668,3390 8670,3489 8668,3587 8659,3680 8646,3765 8636,3805 8626,3843 8614,3879 8601,3913 8586,3947 8570,3978 8553,4006 8535,4033 8514,4059 8493,4083 8470,4105 8447,4125 8421,4142 8395,4158 8368,4173 8339,4186 8277,4205 8211,4216 8140,4220 8064,4217 7983,4207 7719,4163 7719,5088 7360,4993 7360,2653 Z"/>
        <path fill="none" stroke="rgb(0,0,0)" stroke-width="53" stroke-linejoin="miter" d="M 8770,2659 L 9128,2660 9128,3747 9721,3809 9938,3786 9938,2662 10297,2661 10297,5466 9938,5561 9938,4256 9721,4288 9128,4201 9128,5461 8770,5366 8770,2659 Z"/>
        <path fill="none" stroke="rgb(0,0,0)" stroke-width="53" stroke-linejoin="miter" d="M 10496,2660 L 11781,2654 11781,3046 10855,3089 10855,3690 11743,3596 11743,3989 10855,4121 10855,4888 11804,4676 11804,5066 10496,5413 10496,2660 Z"/>
        <path fill="none" stroke="rgb(0,0,0)" stroke-width="53" stroke-linejoin="miter" d="M 12958,3769 L 12960,3768 12961,3767 12963,3766 12965,3764 12967,3764 12969,3764 12971,3763 12973,3764 12978,3765 12984,3767 12990,3770 12996,3774 13010,3784 13026,3798 13044,3815 13064,3836 13086,3860 13106,3886 13127,3914 13147,3943 13188,4009 13229,4081 13523,4610 13133,4714 12880,4232 12858,4191 12837,4154 12817,4120 12796,4090 12776,4065 12757,4043 12737,4026 12728,4018 12718,4012 12709,4008 12699,4003 12678,3994 12655,3987 12630,3984 12603,3982 12574,3982 12544,3984 12512,3988 12290,4024 12290,4937 11931,5032 11931,2653 12554,2651 12636,2653 12713,2660 12785,2673 12852,2690 12913,2712 12942,2724 12969,2739 12996,2754 13021,2769 13045,2787 13067,2805 13088,2824 13108,2845 13126,2867 13143,2890 13158,2914 13173,2940 13186,2966 13197,2994 13208,3023 13217,3052 13230,3116 13239,3185 13241,3258 13240,3307 13236,3354 13229,3400 13219,3444 13206,3486 13190,3527 13171,3566 13149,3604 13126,3639 13102,3670 13080,3697 13068,3709 13056,3719 13044,3729 13031,3738 13019,3746 13008,3753 12996,3758 12983,3763 12971,3766 12958,3769 Z"/>
        <path fill="none" stroke="rgb(0,0,0)" stroke-width="53" stroke-linejoin="miter" d="M 12290,3016 L 12290,3660 12554,3628 12593,3623 12630,3615 12663,3604 12695,3592 12723,3578 12736,3570 12749,3562 12761,3554 12772,3544 12782,3534 12792,3524 12802,3513 12810,3502 12819,3490 12825,3478 12832,3465 12839,3452 12845,3437 12850,3423 12854,3409 12858,3393 12863,3360 12868,3326 12869,3289 12868,3252 12863,3219 12858,3187 12854,3172 12850,3158 12845,3145 12839,3132 12832,3120 12825,3108 12819,3096 12810,3087 12802,3076 12792,3067 12782,3059 12772,3051 12761,3044 12749,3037 12736,3031 12723,3025 12695,3016 12663,3010 12630,3005 12593,3003 12554,3004 12290,3016 Z"/>
        <path fill="none" stroke="rgb(0,0,0)" stroke-width="53" stroke-linejoin="miter" d="M 14723,3031 L 14704,3013 14685,2996 14665,2981 14643,2966 14621,2954 14599,2941 14576,2931 14551,2921 14526,2913 14500,2906 14474,2900 14446,2896 14418,2892 14388,2890 14328,2890 14268,2895 14238,2900 14210,2906 14182,2913 14156,2921 14130,2931 14104,2942 14080,2955 14056,2969 14033,2985 14011,3001 13990,3020 13970,3039 13949,3060 13931,3083 13913,3107 13896,3132 13881,3158 13866,3186 13841,3243 13820,3305 13803,3372 13792,3442 13786,3517 13783,3596 13786,3674 13792,3746 13803,3813 13820,3875 13841,3931 13866,3982 13881,4005 13896,4027 13913,4047 13931,4066 13949,4084 13970,4100 13990,4114 14011,4126 14033,4137 14056,4147 14080,4155 14104,4160 14130,4165 14155,4168 14182,4169 14210,4169 14238,4167 14267,4164 14328,4153 14388,4137 14418,4126 14446,4115 14473,4103 14500,4090 14526,4077 14551,4061 14576,4045 14598,4028 14621,4010 14643,3991 14665,3971 14685,3950 14704,3928 14723,3905 14741,3882 14758,3857 14773,3832 14787,3807 14813,3754 14833,3698 14849,3640 14861,3579 14868,3516 14871,3449 14868,3383 14861,3320 14850,3262 14834,3208 14813,3159 14787,3112 14773,3090 14758,3069 14741,3049 14723,3031 Z"/>
        <path fill="none" stroke="rgb(0,0,0)" stroke-width="53" stroke-linejoin="miter" d="M 14328,2614 L 14430,2617 14526,2629 14571,2637 14616,2647 14660,2659 14702,2672 14743,2687 14782,2704 14821,2723 14858,2742 14893,2763 14928,2787 14961,2811 14993,2837 15024,2864 15052,2893 15078,2922 15103,2952 15125,2983 15145,3016 15181,3083 15208,3155 15227,3231 15238,3312 15243,3399 15238,3485 15227,3569 15208,3650 15181,3730 15145,3807 15125,3844 15103,3881 15078,3918 15052,3954 15024,3990 14993,4025 14961,4060 14928,4094 14894,4126 14858,4157 14821,4187 14782,4216 14743,4243 14702,4269 14660,4294 14616,4318 14571,4340 14526,4361 14430,4398 14328,4429 14226,4453 14130,4467 14084,4470 14038,4471 13995,4469 13953,4465 13911,4459 13871,4449 13833,4437 13796,4422 13760,4405 13725,4385 13692,4362 13660,4337 13630,4309 13602,4279 13575,4247 13551,4213 13529,4176 13508,4138 13473,4055 13446,3964 13426,3865 13414,3760 13410,3646 13414,3532 13425,3422 13446,3318 13473,3220 13508,3127 13529,3083 13551,3040 13575,2999 13602,2960 13630,2922 13660,2886 13692,2852 13725,2821 13760,2791 13796,2764 13833,2739 13871,2717 13911,2697 13953,2679 13995,2663 14038,2650 14083,2639 14130,2630 14226,2617 14328,2614 Z"/>
       </g>
      </g>
      <g class="com.sun.star.drawing.CustomShape">
       <g id="id4">
        <rect class="BoundingBox" stroke="none" fill="none" x="13476" y="2763" width="1651" height="1677"/>
        <path fill="rgb(152,174,207)" stroke="none" d="M 14521,2764 C 14970,2757 15218,3115 15094,3590 14969,4065 14530,4432 14081,4438 13632,4445 13385,4087 13509,3612 13634,3137 14072,2770 14521,2764 Z M 13729,2775 L 13729,2775 Z M 14876,4428 L 14876,4428 Z"/>
       </g>
      </g>
      <g class="Group">
       <g class="com.sun.star.drawing.CustomShape">
        <g id="id5">
         <rect class="BoundingBox" stroke="none" fill="none" x="13572" y="3012" width="1484" height="1021"/>
         <path fill="none" stroke="rgb(255,255,255)" stroke-width="53" stroke-linejoin="round" d="M 14214,3362 C 14564,3105 14873,2977 14928,3068 14984,3159 14760,3425 14411,3683 14062,3941 13752,4067 13697,3976 13641,3885 13865,3620 14214,3362 Z"/>
        </g>
       </g>
       <g class="com.sun.star.drawing.CustomShape">
        <g id="id6">
         <rect class="BoundingBox" stroke="none" fill="none" x="14075" y="2748" width="463" height="1540"/>
         <path fill="none" stroke="rgb(255,255,255)" stroke-width="53" stroke-linejoin="round" d="M 14109,3552 C 14113,3151 14201,2829 14312,2810 14423,2791 14506,3083 14502,3484 14498,3885 14409,4207 14298,4226 14187,4245 14105,3953 14109,3552 Z"/>
        </g>
       </g>
       <g class="com.sun.star.drawing.CustomShape">
        <g id="id7">
         <rect class="BoundingBox" stroke="none" fill="none" x="13678" y="3049" width="1264" height="944"/>
         <path fill="none" stroke="rgb(255,255,255)" stroke-width="53" stroke-linejoin="round" d="M 14206,3701 C 13869,3552 13656,3360 13714,3258 13773,3156 14076,3193 14413,3342 14750,3492 14963,3684 14905,3786 14846,3888 14543,3851 14206,3701 Z"/>
        </g>
       </g>
       <g class="com.sun.star.drawing.CustomShape">
        <g id="id8">
         <rect class="BoundingBox" stroke="none" fill="none" x="14217" y="3432" width="195" height="182"/>
         <path fill="rgb(255,255,255)" stroke="none" d="M 14313,3443 C 14362,3435 14401,3462 14401,3507 14401,3552 14362,3594 14313,3602 14264,3611 14226,3582 14226,3537 14226,3492 14264,3451 14313,3443 Z M 14226,3458 L 14226,3458 Z M 14402,3588 L 14402,3588 Z"/>
         <path fill="none" stroke="rgb(255,255,255)" stroke-width="18" stroke-linejoin="round" d="M 14313,3443 C 14362,3435 14401,3462 14401,3507 14401,3552 14362,3594 14313,3602 14264,3611 14226,3582 14226,3537 14226,3492 14264,3451 14313,3443 Z"/>
        </g>
       </g>
      </g>
      <g class="com.sun.star.drawing.CustomShape">
       <g id="id9">
        <rect class="BoundingBox" stroke="none" fill="none" x="4428" y="1840" width="10343" height="618"/>
        <path fill="rgb(255,255,255)" stroke="none" d="M 4455,2430 L 14743,2430 13287,1867 5910,1867 4455,2430 Z M 4455,2430 L 4455,2430 Z M 14743,1867 L 14743,1867 Z"/>
        <path fill="none" stroke="rgb(0,0,0)" stroke-width="53" stroke-linejoin="round" d="M 4455,2430 L 14743,2430 13287,1867 5910,1867 4455,2430 Z"/>
       </g>
      </g>
      <g class="com.sun.star.drawing.CustomShape">
       <g id="id10">
        <rect class="BoundingBox" stroke="none" fill="none" x="8640" y="2021" width="2032" height="320"/>
        <path fill="rgb(152,174,207)" stroke="none" d="M 8866,2076 L 8794,2181 8933,2181 8915,2212 8773,2212 8695,2327 8658,2327 8857,2045 9014,2045 8997,2076 8866,2076 Z M 8898,2327 L 8987,2161 8994,2147 9002,2133 9008,2120 9010,2118 9012,2115 9012,2114 9013,2112 9013,2111 9013,2110 9042,2110 9040,2115 9038,2118 9038,2118 9037,2120 9035,2123 9034,2127 9033,2130 9031,2133 9025,2145 9020,2154 9021,2154 9024,2152 9026,2149 9031,2143 9035,2137 9039,2133 9041,2131 9043,2129 9045,2127 9047,2125 9049,2123 9051,2121 9054,2119 9056,2118 9057,2117 9060,2115 9061,2114 9063,2113 9065,2112 9068,2111 9069,2110 9071,2109 9074,2108 9076,2108 9077,2107 9079,2107 9081,2106 9084,2106 9086,2106 9088,2106 9090,2106 9091,2106 9092,2106 9093,2106 9094,2106 9094,2107 9095,2107 9095,2107 9096,2107 9096,2107 9097,2107 9098,2108 9099,2108 9100,2108 9100,2108 9100,2108 9084,2141 9084,2141 9083,2141 9083,2140 9082,2140 9080,2140 9079,2139 9078,2139 9078,2139 9068,2139 9066,2139 9064,2139 9061,2140 9058,2141 9056,2141 9053,2142 9050,2144 9048,2145 9045,2147 9043,2148 9041,2150 9038,2152 9036,2154 9033,2155 9031,2157 9028,2160 9024,2165 9022,2168 9019,2171 9016,2174 9014,2177 9012,2180 9009,2184 9005,2191 9000,2198 8996,2206 8992,2214 8935,2327 8898,2327 Z M 9086,2331 L 9078,2331 9071,2330 9068,2329 9065,2328 9062,2328 9059,2327 9056,2325 9054,2324 9052,2322 9050,2321 9048,2319 9047,2317 9045,2315 9044,2314 9043,2312 9043,2309 9041,2307 9041,2304 9041,2298 9041,2293 9042,2287 9044,2280 9046,2274 9049,2266 9051,2261 9054,2256 9057,2251 9060,2247 9063,2243 9066,2239 9069,2235 9072,2231 9076,2227 9080,2225 9083,2222 9086,2219 9091,2216 9094,2214 9097,2211 9101,2209 9105,2207 9109,2206 9112,2205 9116,2203 9121,2202 9124,2201 9128,2200 9132,2199 9140,2198 9148,2197 9165,2195 9208,2194 9212,2183 9215,2176 9217,2171 9217,2168 9218,2165 9219,2162 9218,2160 9218,2158 9219,2155 9219,2154 9218,2152 9217,2150 9217,2148 9216,2147 9216,2145 9215,2144 9215,2144 9214,2142 9213,2141 9211,2140 9211,2139 9209,2138 9207,2137 9206,2136 9204,2136 9203,2136 9202,2135 9200,2135 9197,2134 9195,2134 9193,2134 9190,2134 9188,2134 9186,2134 9181,2135 9177,2135 9173,2136 9171,2136 9169,2136 9167,2136 9166,2137 9164,2138 9162,2139 9160,2139 9159,2140 9158,2141 9155,2142 9153,2144 9152,2145 9150,2147 9149,2148 9147,2150 9146,2151 9144,2153 9143,2154 9141,2156 9141,2158 9138,2163 9135,2168 9103,2165 9108,2158 9111,2153 9116,2147 9118,2144 9120,2141 9122,2138 9125,2136 9127,2134 9130,2131 9133,2129 9136,2126 9139,2124 9142,2122 9145,2120 9148,2118 9151,2118 9154,2116 9158,2115 9161,2113 9165,2112 9168,2111 9171,2110 9175,2109 9180,2108 9184,2107 9188,2107 9193,2106 9197,2106 9201,2106 9209,2106 9216,2107 9224,2109 9226,2110 9230,2111 9232,2112 9234,2114 9237,2116 9239,2117 9241,2118 9243,2120 9245,2123 9246,2125 9247,2128 9248,2130 9249,2133 9250,2136 9250,2138 9251,2141 9251,2148 9251,2154 9250,2162 9248,2171 9245,2179 9215,2272 9214,2276 9213,2279 9213,2283 9212,2286 9212,2289 9212,2292 9211,2295 9212,2296 9212,2297 9212,2298 9212,2299 9213,2300 9214,2301 9214,2301 9215,2302 9216,2302 9217,2303 9218,2303 9219,2303 9220,2304 9221,2304 9222,2304 9225,2304 9231,2304 9231,2304 9232,2304 9232,2304 9232,2304 9233,2304 9234,2304 9234,2303 9236,2303 9236,2303 9236,2303 9237,2303 9237,2303 9230,2326 9226,2327 9223,2327 9221,2328 9219,2328 9218,2328 9216,2328 9214,2328 9212,2329 9211,2329 9208,2329 9205,2329 9202,2329 9199,2329 9197,2329 9195,2329 9193,2328 9191,2328 9189,2327 9187,2327 9185,2326 9185,2325 9183,2324 9182,2323 9180,2322 9179,2321 9178,2320 9177,2319 9178,2318 9177,2318 9177,2317 9176,2316 9176,2316 9175,2315 9176,2314 9175,2314 9174,2312 9175,2310 9175,2308 9174,2306 9175,2304 9174,2302 9175,2299 9175,2297 9175,2296 9175,2293 9176,2291 9177,2288 9178,2285 9177,2285 9173,2290 9168,2295 9163,2299 9158,2304 9155,2306 9153,2308 9150,2310 9147,2312 9146,2314 9143,2315 9140,2316 9137,2318 9134,2319 9131,2321 9129,2322 9126,2323 9119,2326 9113,2328 9109,2329 9107,2329 9103,2330 9100,2330 9096,2331 9093,2331 9089,2331 9086,2331 Z M 9105,2303 L 9109,2303 9112,2303 9117,2302 9121,2302 9124,2301 9128,2300 9132,2299 9136,2297 9140,2296 9143,2294 9147,2292 9150,2290 9153,2288 9156,2286 9158,2284 9162,2281 9168,2277 9170,2274 9173,2271 9175,2269 9177,2266 9179,2263 9181,2260 9183,2258 9185,2255 9187,2252 9188,2249 9190,2246 9191,2243 9192,2241 9193,2238 9199,2221 9163,2221 9152,2221 9149,2221 9145,2221 9143,2222 9140,2222 9136,2223 9134,2223 9132,2224 9128,2225 9126,2225 9123,2226 9120,2228 9118,2229 9115,2230 9112,2232 9111,2233 9108,2235 9106,2237 9103,2239 9101,2241 9100,2243 9097,2245 9095,2247 9093,2250 9091,2253 9089,2257 9087,2260 9086,2262 9084,2266 9082,2271 9081,2275 9080,2278 9080,2282 9080,2285 9080,2288 9080,2290 9081,2291 9081,2293 9082,2294 9082,2295 9083,2296 9083,2297 9085,2298 9086,2298 9087,2299 9089,2300 9090,2301 9092,2301 9093,2302 9097,2302 9100,2303 9105,2303 Z M 9381,2327 L 9407,2189 9409,2182 9409,2174 9410,2169 9410,2163 9411,2160 9411,2157 9410,2155 9410,2154 9410,2152 9409,2150 9408,2148 9408,2146 9407,2144 9406,2143 9406,2141 9405,2140 9403,2139 9402,2138 9401,2137 9400,2136 9398,2136 9396,2136 9394,2135 9392,2135 9391,2134 9389,2134 9387,2134 9385,2134 9382,2134 9380,2134 9378,2135 9375,2135 9372,2136 9370,2136 9368,2137 9366,2138 9364,2139 9361,2141 9359,2142 9357,2144 9355,2146 9353,2148 9349,2152 9347,2154 9345,2155 9343,2158 9341,2161 9340,2164 9339,2167 9336,2172 9333,2179 9329,2186 9328,2189 9326,2193 9325,2197 9324,2201 9292,2327 9257,2327 9305,2156 9309,2142 9313,2128 9316,2116 9318,2110 9346,2110 9344,2116 9344,2117 9344,2118 9343,2120 9343,2125 9342,2126 9342,2128 9341,2131 9340,2136 9337,2147 9338,2147 9341,2142 9345,2137 9348,2134 9351,2130 9354,2126 9357,2124 9358,2122 9359,2121 9362,2119 9363,2118 9365,2117 9367,2116 9369,2115 9371,2113 9373,2112 9375,2111 9377,2111 9379,2110 9381,2109 9384,2108 9386,2108 9389,2107 9390,2107 9393,2106 9395,2106 9397,2106 9400,2106 9405,2106 9411,2107 9415,2107 9419,2108 9423,2110 9424,2111 9425,2111 9427,2112 9429,2114 9429,2115 9431,2116 9434,2118 9436,2121 9437,2125 9439,2129 9440,2133 9441,2137 9442,2142 9442,2147 9443,2147 9446,2142 9450,2137 9452,2134 9455,2130 9462,2122 9463,2121 9465,2119 9467,2118 9469,2117 9471,2116 9473,2115 9474,2113 9476,2112 9478,2111 9481,2111 9485,2109 9487,2108 9490,2108 9492,2107 9494,2107 9497,2106 9499,2106 9502,2106 9505,2106 9508,2106 9512,2106 9515,2106 9517,2107 9520,2107 9523,2108 9525,2109 9528,2110 9530,2111 9532,2113 9534,2114 9537,2116 9539,2118 9540,2119 9541,2121 9543,2124 9544,2126 9545,2129 9546,2132 9548,2135 9548,2137 9549,2140 9550,2144 9551,2148 9551,2155 9551,2164 9552,2172 9551,2182 9539,2327 9504,2327 9518,2189 9519,2182 9519,2174 9520,2169 9519,2163 9519,2160 9519,2158 9518,2155 9518,2154 9517,2152 9517,2150 9516,2148 9515,2146 9514,2144 9513,2143 9513,2141 9512,2140 9510,2139 9509,2138 9507,2137 9506,2136 9504,2136 9502,2136 9501,2135 9499,2135 9497,2134 9495,2134 9493,2134 9491,2134 9488,2134 9486,2134 9484,2135 9481,2135 9479,2136 9477,2136 9475,2137 9472,2138 9470,2139 9468,2140 9466,2142 9465,2143 9463,2145 9460,2147 9459,2149 9457,2151 9455,2153 9453,2155 9452,2157 9450,2160 9449,2163 9448,2166 9445,2172 9444,2174 9443,2178 9441,2185 9439,2192 9437,2201 9416,2327 9381,2327 Z M 9620,2225 L 9620,2234 9620,2238 9621,2242 9621,2245 9622,2249 9623,2253 9624,2257 9626,2263 9629,2270 9631,2276 9633,2278 9634,2281 9637,2284 9638,2286 9640,2289 9642,2291 9644,2293 9648,2295 9650,2296 9652,2297 9655,2298 9658,2300 9661,2301 9664,2302 9668,2302 9671,2303 9676,2303 9679,2303 9685,2303 9689,2302 9695,2302 9699,2300 9703,2299 9707,2297 9711,2296 9714,2294 9718,2291 9721,2289 9723,2286 9726,2283 9728,2280 9729,2277 9731,2274 9732,2270 9762,2279 9760,2284 9760,2288 9757,2293 9756,2296 9755,2297 9754,2299 9752,2301 9751,2304 9749,2306 9747,2308 9744,2310 9742,2312 9740,2314 9735,2317 9733,2319 9729,2320 9726,2322 9723,2323 9719,2325 9716,2326 9713,2327 9708,2328 9703,2329 9700,2330 9694,2330 9690,2331 9685,2331 9680,2331 9668,2331 9662,2330 9657,2329 9652,2328 9648,2327 9642,2325 9637,2324 9634,2322 9629,2319 9625,2317 9622,2314 9618,2312 9615,2309 9612,2306 9608,2302 9605,2298 9603,2295 9601,2291 9598,2286 9595,2277 9592,2266 9589,2256 9588,2243 9587,2231 9588,2217 9589,2203 9590,2196 9591,2189 9593,2183 9594,2177 9595,2172 9598,2166 9600,2161 9602,2155 9604,2151 9606,2147 9608,2142 9612,2138 9614,2135 9617,2131 9620,2128 9623,2124 9626,2122 9629,2119 9632,2118 9636,2115 9638,2114 9642,2112 9646,2111 9650,2109 9654,2108 9658,2108 9662,2107 9665,2106 9670,2106 9674,2106 9680,2106 9685,2107 9689,2107 9694,2108 9699,2110 9704,2111 9708,2113 9712,2115 9716,2117 9720,2119 9723,2122 9726,2125 9729,2128 9732,2131 9736,2135 9739,2138 9741,2142 9743,2146 9746,2151 9748,2155 9752,2165 9755,2175 9756,2181 9758,2186 9760,2197 9762,2208 9763,2221 9763,2225 9620,2225 Z M 9729,2198 L 9728,2189 9727,2182 9725,2174 9723,2168 9720,2161 9718,2156 9717,2154 9715,2151 9714,2149 9712,2147 9707,2143 9703,2140 9701,2139 9699,2138 9697,2137 9694,2136 9692,2136 9689,2135 9684,2134 9679,2133 9674,2133 9672,2133 9670,2133 9668,2134 9666,2134 9664,2134 9662,2135 9658,2136 9654,2138 9650,2140 9646,2143 9642,2146 9640,2148 9638,2150 9636,2153 9634,2155 9632,2157 9631,2160 9629,2164 9628,2167 9626,2173 9623,2181 9622,2189 9621,2198 9729,2198 Z M 10021,2327 L 9980,2327 9917,2187 9914,2181 9913,2177 9911,2173 9905,2158 9898,2139 9898,2157 9899,2173 9899,2181 9899,2185 9898,2188 9890,2327 9849,2327 9769,2110 9797,2110 9850,2258 9852,2260 9852,2261 9852,2262 9853,2264 9854,2265 9854,2267 9854,2269 9859,2281 9861,2285 9862,2289 9862,2293 9864,2295 9864,2296 9865,2282 9866,2269 9866,2263 9867,2262 9867,2260 9867,2260 9867,2259 9876,2110 9908,2110 9975,2259 9981,2271 9983,2274 9984,2278 9985,2278 9986,2280 9986,2281 9987,2283 9993,2296 9993,2282 9993,2269 9992,2258 9986,2110 10016,2110 10021,2327 Z M 10239,2218 L 10246,2232 10250,2244 10254,2257 10256,2268 10257,2278 10258,2287 10256,2292 10256,2296 10255,2299 10253,2303 10252,2307 10250,2310 10247,2313 10245,2315 10243,2317 10239,2320 10236,2322 10233,2324 10229,2326 10225,2327 10220,2328 10216,2329 10211,2330 10206,2331 10195,2331 10189,2331 10183,2331 10178,2330 10172,2329 10167,2328 10162,2327 10157,2326 10152,2324 10147,2322 10143,2320 10137,2317 10133,2315 10129,2313 10125,2310 10120,2307 10116,2303 10111,2299 10108,2296 10104,2292 10100,2287 10097,2283 10093,2278 10089,2273 10086,2268 10084,2262 10080,2257 10077,2251 10075,2244 10069,2232 10064,2218 10060,2205 10057,2191 10055,2180 10053,2169 10053,2159 10054,2150 10055,2141 10058,2134 10061,2127 10066,2122 10071,2117 10076,2113 10083,2110 10091,2108 10100,2106 10109,2106 10114,2106 10119,2106 10124,2107 10129,2108 10134,2109 10139,2110 10143,2111 10147,2113 10152,2115 10157,2117 10161,2119 10166,2121 10170,2124 10174,2127 10177,2131 10182,2134 10185,2137 10190,2141 10194,2145 10198,2150 10202,2154 10205,2159 10209,2164 10212,2169 10219,2180 10226,2191 10233,2205 10239,2218 Z M 10205,2218 L 10200,2206 10194,2195 10189,2185 10184,2176 10181,2172 10179,2169 10176,2165 10174,2162 10172,2159 10169,2156 10166,2154 10163,2151 10160,2148 10158,2146 10156,2144 10153,2142 10150,2140 10148,2139 10145,2137 10142,2136 10139,2136 10136,2135 10134,2134 10131,2134 10128,2133 10125,2133 10122,2133 10119,2133 10116,2133 10114,2133 10112,2133 10109,2134 10106,2134 10104,2135 10102,2136 10100,2136 10099,2137 10096,2139 10095,2140 10093,2142 10092,2144 10091,2146 10089,2148 10088,2151 10087,2154 10087,2156 10086,2159 10086,2162 10087,2166 10087,2170 10087,2173 10088,2177 10090,2186 10092,2195 10095,2207 10099,2218 10103,2230 10108,2242 10112,2251 10114,2256 10116,2260 10121,2267 10124,2271 10127,2275 10129,2278 10132,2280 10134,2283 10138,2286 10141,2289 10143,2291 10146,2293 10148,2295 10151,2296 10155,2297 10158,2299 10161,2300 10167,2301 10169,2302 10172,2303 10174,2303 10178,2304 10180,2304 10183,2304 10187,2304 10190,2304 10193,2304 10196,2303 10200,2303 10202,2302 10205,2301 10206,2300 10208,2299 10210,2297 10213,2296 10214,2295 10216,2293 10217,2291 10217,2289 10218,2286 10219,2283 10219,2280 10220,2278 10220,2275 10221,2271 10220,2267 10220,2263 10219,2260 10219,2256 10218,2251 10213,2241 10210,2230 10205,2218 Z M 10333,2327 L 10253,2161 10246,2147 10239,2133 10233,2120 10232,2118 10230,2115 10230,2114 10229,2112 10228,2111 10227,2110 10256,2110 10259,2115 10260,2118 10260,2118 10261,2120 10263,2123 10266,2127 10267,2130 10269,2133 10275,2145 10280,2154 10281,2154 10280,2152 10280,2149 10279,2143 10277,2137 10277,2133 10277,2131 10277,2129 10277,2127 10277,2125 10277,2123 10277,2121 10277,2119 10277,2118 10278,2117 10279,2115 10279,2114 10280,2113 10281,2112 10283,2111 10283,2110 10285,2109 10286,2108 10288,2108 10288,2107 10290,2107 10292,2106 10295,2106 10296,2106 10298,2106 10300,2106 10301,2106 10302,2106 10303,2106 10304,2106 10306,2107 10307,2107 10307,2107 10308,2107 10308,2107 10309,2107 10310,2108 10311,2108 10312,2108 10312,2108 10312,2108 10330,2141 10330,2141 10329,2141 10328,2140 10327,2140 10325,2140 10323,2139 10322,2139 10322,2139 10313,2139 10310,2139 10308,2139 10306,2140 10304,2141 10302,2141 10300,2142 10299,2144 10298,2145 10297,2147 10295,2148 10295,2150 10294,2152 10294,2154 10293,2155 10293,2157 10294,2160 10294,2165 10295,2168 10295,2171 10296,2174 10296,2177 10298,2180 10299,2184 10302,2191 10304,2198 10308,2206 10312,2214 10370,2327 10333,2327 Z M 10601,2327 L 10467,2227 10456,2249 10503,2327 10468,2327 10295,2030 10323,2030 10435,2215 10451,2110 10486,2110 10473,2203 10643,2327 10601,2327 Z"/>
        <path fill="none" stroke="rgb(152,174,207)" stroke-width="18" stroke-linejoin="miter" d="M 8866,2076 L 8794,2181 8933,2181 8915,2212 8773,2212 8695,2327 8658,2327 8857,2045 9014,2045 8997,2076 8866,2076 Z"/>
        <path fill="none" stroke="rgb(152,174,207)" stroke-width="18" stroke-linejoin="miter" d="M 8898,2327 L 8987,2161 8994,2147 9002,2133 9008,2120 9010,2118 9012,2115 9012,2114 9013,2112 9013,2111 9013,2110 9042,2110 9040,2115 9038,2118 9038,2118 9037,2120 9035,2123 9034,2127 9033,2130 9031,2133 9025,2145 9020,2154 9021,2154 9024,2152 9026,2149 9031,2143 9035,2137 9039,2133 9041,2131 9043,2129 9045,2127 9047,2125 9049,2123 9051,2121 9054,2119 9056,2118 9057,2117 9060,2115 9061,2114 9063,2113 9065,2112 9068,2111 9069,2110 9071,2109 9074,2108 9076,2108 9077,2107 9079,2107 9081,2106 9084,2106 9086,2106 9088,2106 9090,2106 9091,2106 9092,2106 9093,2106 9094,2106 9094,2107 9095,2107 9095,2107 9096,2107 9096,2107 9097,2107 9098,2108 9099,2108 9100,2108 9100,2108 9100,2108 9084,2141 9084,2141 9083,2141 9083,2140 9082,2140 9080,2140 9079,2139 9078,2139 9078,2139 9068,2139 9066,2139 9064,2139 9061,2140 9058,2141 9056,2141 9053,2142 9050,2144 9048,2145 9045,2147 9043,2148 9041,2150 9038,2152 9036,2154 9033,2155 9031,2157 9028,2160 9024,2165 9022,2168 9019,2171 9016,2174 9014,2177 9012,2180 9009,2184 9005,2191 9000,2198 8996,2206 8992,2214 8935,2327 8898,2327 Z"/>
        <path fill="none" stroke="rgb(152,174,207)" stroke-width="18" stroke-linejoin="miter" d="M 9086,2331 L 9078,2331 9071,2330 9068,2329 9065,2328 9062,2328 9059,2327 9056,2325 9054,2324 9052,2322 9050,2321 9048,2319 9047,2317 9045,2315 9044,2314 9043,2312 9043,2309 9041,2307 9041,2304 9041,2298 9041,2293 9042,2287 9044,2280 9046,2274 9049,2266 9051,2261 9054,2256 9057,2251 9060,2247 9063,2243 9066,2239 9069,2235 9072,2231 9076,2227 9080,2225 9083,2222 9086,2219 9091,2216 9094,2214 9097,2211 9101,2209 9105,2207 9109,2206 9112,2205 9116,2203 9121,2202 9124,2201 9128,2200 9132,2199 9140,2198 9148,2197 9165,2195 9208,2194 9212,2183 9215,2176 9217,2171 9217,2168 9218,2165 9219,2162 9218,2160 9218,2158 9219,2155 9219,2154 9218,2152 9217,2150 9217,2148 9216,2147 9216,2145 9215,2144 9215,2144 9214,2142 9213,2141 9211,2140 9211,2139 9209,2138 9207,2137 9206,2136 9204,2136 9203,2136 9202,2135 9200,2135 9197,2134 9195,2134 9193,2134 9190,2134 9188,2134 9186,2134 9181,2135 9177,2135 9173,2136 9171,2136 9169,2136 9167,2136 9166,2137 9164,2138 9162,2139 9160,2139 9159,2140 9158,2141 9155,2142 9153,2144 9152,2145 9150,2147 9149,2148 9147,2150 9146,2151 9144,2153 9143,2154 9141,2156 9141,2158 9138,2163 9135,2168 9103,2165 9108,2158 9111,2153 9116,2147 9118,2144 9120,2141 9122,2138 9125,2136 9127,2134 9130,2131 9133,2129 9136,2126 9139,2124 9142,2122 9145,2120 9148,2118 9151,2118 9154,2116 9158,2115 9161,2113 9165,2112 9168,2111 9171,2110 9175,2109 9180,2108 9184,2107 9188,2107 9193,2106 9197,2106 9201,2106 9209,2106 9216,2107 9224,2109 9226,2110 9230,2111 9232,2112 9234,2114 9237,2116 9239,2117 9241,2118 9243,2120 9245,2123 9246,2125 9247,2128 9248,2130 9249,2133 9250,2136 9250,2138 9251,2141 9251,2148 9251,2154 9250,2162 9248,2171 9245,2179 9215,2272 9214,2276 9213,2279 9213,2283 9212,2286 9212,2289 9212,2292 9211,2295 9212,2296 9212,2297 9212,2298 9212,2299 9213,2300 9214,2301 9214,2301 9215,2302 9216,2302 9217,2303 9218,2303 9219,2303 9220,2304 9221,2304 9222,2304 9225,2304 9231,2304 9231,2304 9232,2304 9232,2304 9232,2304 9233,2304 9234,2304 9234,2303 9236,2303 9236,2303 9236,2303 9237,2303 9237,2303 9230,2326 9226,2327 9223,2327 9221,2328 9219,2328 9218,2328 9216,2328 9214,2328 9212,2329 9211,2329 9208,2329 9205,2329 9202,2329 9199,2329 9197,2329 9195,2329 9193,2328 9191,2328 9189,2327 9187,2327 9185,2326 9185,2325 9183,2324 9182,2323 9180,2322 9179,2321 9178,2320 9177,2319 9178,2318 9177,2318 9177,2317 9176,2316 9176,2316 9175,2315 9176,2314 9175,2314 9174,2312 9175,2310 9175,2308 9174,2306 9175,2304 9174,2302 9175,2299 9175,2297 9175,2296 9175,2293 9176,2291 9177,2288 9178,2285 9177,2285 9173,2290 9168,2295 9163,2299 9158,2304 9155,2306 9153,2308 9150,2310 9147,2312 9146,2314 9143,2315 9140,2316 9137,2318 9134,2319 9131,2321 9129,2322 9126,2323 9119,2326 9113,2328 9109,2329 9107,2329 9103,2330 9100,2330 9096,2331 9093,2331 9089,2331 9086,2331 Z"/>
        <path fill="none" stroke="rgb(152,174,207)" stroke-width="18" stroke-linejoin="miter" d="M 9105,2303 L 9109,2303 9112,2303 9117,2302 9121,2302 9124,2301 9128,2300 9132,2299 9136,2297 9140,2296 9143,2294 9147,2292 9150,2290 9153,2288 9156,2286 9158,2284 9162,2281 9168,2277 9170,2274 9173,2271 9175,2269 9177,2266 9179,2263 9181,2260 9183,2258 9185,2255 9187,2252 9188,2249 9190,2246 9191,2243 9192,2241 9193,2238 9199,2221 9163,2221 9152,2221 9149,2221 9145,2221 9143,2222 9140,2222 9136,2223 9134,2223 9132,2224 9128,2225 9126,2225 9123,2226 9120,2228 9118,2229 9115,2230 9112,2232 9111,2233 9108,2235 9106,2237 9103,2239 9101,2241 9100,2243 9097,2245 9095,2247 9093,2250 9091,2253 9089,2257 9087,2260 9086,2262 9084,2266 9082,2271 9081,2275 9080,2278 9080,2282 9080,2285 9080,2288 9080,2290 9081,2291 9081,2293 9082,2294 9082,2295 9083,2296 9083,2297 9085,2298 9086,2298 9087,2299 9089,2300 9090,2301 9092,2301 9093,2302 9097,2302 9100,2303 9105,2303 Z"/>
        <path fill="none" stroke="rgb(152,174,207)" stroke-width="18" stroke-linejoin="miter" d="M 9381,2327 L 9407,2189 9409,2182 9409,2174 9410,2169 9410,2163 9411,2160 9411,2157 9410,2155 9410,2154 9410,2152 9409,2150 9408,2148 9408,2146 9407,2144 9406,2143 9406,2141 9405,2140 9403,2139 9402,2138 9401,2137 9400,2136 9398,2136 9396,2136 9394,2135 9392,2135 9391,2134 9389,2134 9387,2134 9385,2134 9382,2134 9380,2134 9378,2135 9375,2135 9372,2136 9370,2136 9368,2137 9366,2138 9364,2139 9361,2141 9359,2142 9357,2144 9355,2146 9353,2148 9349,2152 9347,2154 9345,2155 9343,2158 9341,2161 9340,2164 9339,2167 9336,2172 9333,2179 9329,2186 9328,2189 9326,2193 9325,2197 9324,2201 9292,2327 9257,2327 9305,2156 9309,2142 9313,2128 9316,2116 9318,2110 9346,2110 9344,2116 9344,2117 9344,2118 9343,2120 9343,2125 9342,2126 9342,2128 9341,2131 9340,2136 9337,2147 9338,2147 9341,2142 9345,2137 9348,2134 9351,2130 9354,2126 9357,2124 9358,2122 9359,2121 9362,2119 9363,2118 9365,2117 9367,2116 9369,2115 9371,2113 9373,2112 9375,2111 9377,2111 9379,2110 9381,2109 9384,2108 9386,2108 9389,2107 9390,2107 9393,2106 9395,2106 9397,2106 9400,2106 9405,2106 9411,2107 9415,2107 9419,2108 9423,2110 9424,2111 9425,2111 9427,2112 9429,2114 9429,2115 9431,2116 9434,2118 9436,2121 9437,2125 9439,2129 9440,2133 9441,2137 9442,2142 9442,2147 9443,2147 9446,2142 9450,2137 9452,2134 9455,2130 9462,2122 9463,2121 9465,2119 9467,2118 9469,2117 9471,2116 9473,2115 9474,2113 9476,2112 9478,2111 9481,2111 9485,2109 9487,2108 9490,2108 9492,2107 9494,2107 9497,2106 9499,2106 9502,2106 9505,2106 9508,2106 9512,2106 9515,2106 9517,2107 9520,2107 9523,2108 9525,2109 9528,2110 9530,2111 9532,2113 9534,2114 9537,2116 9539,2118 9540,2119 9541,2121 9543,2124 9544,2126 9545,2129 9546,2132 9548,2135 9548,2137 9549,2140 9550,2144 9551,2148 9551,2155 9551,2164 9552,2172 9551,2182 9539,2327 9504,2327 9518,2189 9519,2182 9519,2174 9520,2169 9519,2163 9519,2160 9519,2158 9518,2155 9518,2154 9517,2152 9517,2150 9516,2148 9515,2146 9514,2144 9513,2143 9513,2141 9512,2140 9510,2139 9509,2138 9507,2137 9506,2136 9504,2136 9502,2136 9501,2135 9499,2135 9497,2134 9495,2134 9493,2134 9491,2134 9488,2134 9486,2134 9484,2135 9481,2135 9479,2136 9477,2136 9475,2137 9472,2138 9470,2139 9468,2140 9466,2142 9465,2143 9463,2145 9460,2147 9459,2149 9457,2151 9455,2153 9453,2155 9452,2157 9450,2160 9449,2163 9448,2166 9445,2172 9444,2174 9443,2178 9441,2185 9439,2192 9437,2201 9416,2327 9381,2327 Z"/>
        <path fill="none" stroke="rgb(152,174,207)" stroke-width="18" stroke-linejoin="miter" d="M 9620,2225 L 9620,2234 9620,2238 9621,2242 9621,2245 9622,2249 9623,2253 9624,2257 9626,2263 9629,2270 9631,2276 9633,2278 9634,2281 9637,2284 9638,2286 9640,2289 9642,2291 9644,2293 9648,2295 9650,2296 9652,2297 9655,2298 9658,2300 9661,2301 9664,2302 9668,2302 9671,2303 9676,2303 9679,2303 9685,2303 9689,2302 9695,2302 9699,2300 9703,2299 9707,2297 9711,2296 9714,2294 9718,2291 9721,2289 9723,2286 9726,2283 9728,2280 9729,2277 9731,2274 9732,2270 9762,2279 9760,2284 9760,2288 9757,2293 9756,2296 9755,2297 9754,2299 9752,2301 9751,2304 9749,2306 9747,2308 9744,2310 9742,2312 9740,2314 9735,2317 9733,2319 9729,2320 9726,2322 9723,2323 9719,2325 9716,2326 9713,2327 9708,2328 9703,2329 9700,2330 9694,2330 9690,2331 9685,2331 9680,2331 9668,2331 9662,2330 9657,2329 9652,2328 9648,2327 9642,2325 9637,2324 9634,2322 9629,2319 9625,2317 9622,2314 9618,2312 9615,2309 9612,2306 9608,2302 9605,2298 9603,2295 9601,2291 9598,2286 9595,2277 9592,2266 9589,2256 9588,2243 9587,2231 9588,2217 9589,2203 9590,2196 9591,2189 9593,2183 9594,2177 9595,2172 9598,2166 9600,2161 9602,2155 9604,2151 9606,2147 9608,2142 9612,2138 9614,2135 9617,2131 9620,2128 9623,2124 9626,2122 9629,2119 9632,2118 9636,2115 9638,2114 9642,2112 9646,2111 9650,2109 9654,2108 9658,2108 9662,2107 9665,2106 9670,2106 9674,2106 9680,2106 9685,2107 9689,2107 9694,2108 9699,2110 9704,2111 9708,2113 9712,2115 9716,2117 9720,2119 9723,2122 9726,2125 9729,2128 9732,2131 9736,2135 9739,2138 9741,2142 9743,2146 9746,2151 9748,2155 9752,2165 9755,2175 9756,2181 9758,2186 9760,2197 9762,2208 9763,2221 9763,2225 9620,2225 Z"/>
        <path fill="none" stroke="rgb(152,174,207)" stroke-width="18" stroke-linejoin="miter" d="M 9729,2198 L 9728,2189 9727,2182 9725,2174 9723,2168 9720,2161 9718,2156 9717,2154 9715,2151 9714,2149 9712,2147 9707,2143 9703,2140 9701,2139 9699,2138 9697,2137 9694,2136 9692,2136 9689,2135 9684,2134 9679,2133 9674,2133 9672,2133 9670,2133 9668,2134 9666,2134 9664,2134 9662,2135 9658,2136 9654,2138 9650,2140 9646,2143 9642,2146 9640,2148 9638,2150 9636,2153 9634,2155 9632,2157 9631,2160 9629,2164 9628,2167 9626,2173 9623,2181 9622,2189 9621,2198 9729,2198 Z"/>
        <path fill="none" stroke="rgb(152,174,207)" stroke-width="18" stroke-linejoin="miter" d="M 10021,2327 L 9980,2327 9917,2187 9914,2181 9913,2177 9911,2173 9905,2158 9898,2139 9898,2157 9899,2173 9899,2181 9899,2185 9898,2188 9890,2327 9849,2327 9769,2110 9797,2110 9850,2258 9852,2260 9852,2261 9852,2262 9853,2264 9854,2265 9854,2267 9854,2269 9859,2281 9861,2285 9862,2289 9862,2293 9864,2295 9864,2296 9865,2282 9866,2269 9866,2263 9867,2262 9867,2260 9867,2260 9867,2259 9876,2110 9908,2110 9975,2259 9981,2271 9983,2274 9984,2278 9985,2278 9986,2280 9986,2281 9987,2283 9993,2296 9993,2282 9993,2269 9992,2258 9986,2110 10016,2110 10021,2327 Z"/>
        <path fill="none" stroke="rgb(152,174,207)" stroke-width="18" stroke-linejoin="miter" d="M 10239,2218 L 10246,2232 10250,2244 10254,2257 10256,2268 10257,2278 10258,2287 10256,2292 10256,2296 10255,2299 10253,2303 10252,2307 10250,2310 10247,2313 10245,2315 10243,2317 10239,2320 10236,2322 10233,2324 10229,2326 10225,2327 10220,2328 10216,2329 10211,2330 10206,2331 10195,2331 10189,2331 10183,2331 10178,2330 10172,2329 10167,2328 10162,2327 10157,2326 10152,2324 10147,2322 10143,2320 10137,2317 10133,2315 10129,2313 10125,2310 10120,2307 10116,2303 10111,2299 10108,2296 10104,2292 10100,2287 10097,2283 10093,2278 10089,2273 10086,2268 10084,2262 10080,2257 10077,2251 10075,2244 10069,2232 10064,2218 10060,2205 10057,2191 10055,2180 10053,2169 10053,2159 10054,2150 10055,2141 10058,2134 10061,2127 10066,2122 10071,2117 10076,2113 10083,2110 10091,2108 10100,2106 10109,2106 10114,2106 10119,2106 10124,2107 10129,2108 10134,2109 10139,2110 10143,2111 10147,2113 10152,2115 10157,2117 10161,2119 10166,2121 10170,2124 10174,2127 10177,2131 10182,2134 10185,2137 10190,2141 10194,2145 10198,2150 10202,2154 10205,2159 10209,2164 10212,2169 10219,2180 10226,2191 10233,2205 10239,2218 Z"/>
        <path fill="none" stroke="rgb(152,174,207)" stroke-width="18" stroke-linejoin="miter" d="M 10205,2218 L 10200,2206 10194,2195 10189,2185 10184,2176 10181,2172 10179,2169 10176,2165 10174,2162 10172,2159 10169,2156 10166,2154 10163,2151 10160,2148 10158,2146 10156,2144 10153,2142 10150,2140 10148,2139 10145,2137 10142,2136 10139,2136 10136,2135 10134,2134 10131,2134 10128,2133 10125,2133 10122,2133 10119,2133 10116,2133 10114,2133 10112,2133 10109,2134 10106,2134 10104,2135 10102,2136 10100,2136 10099,2137 10096,2139 10095,2140 10093,2142 10092,2144 10091,2146 10089,2148 10088,2151 10087,2154 10087,2156 10086,2159 10086,2162 10087,2166 10087,2170 10087,2173 10088,2177 10090,2186 10092,2195 10095,2207 10099,2218 10103,2230 10108,2242 10112,2251 10114,2256 10116,2260 10121,2267 10124,2271 10127,2275 10129,2278 10132,2280 10134,2283 10138,2286 10141,2289 10143,2291 10146,2293 10148,2295 10151,2296 10155,2297 10158,2299 10161,2300 10167,2301 10169,2302 10172,2303 10174,2303 10178,2304 10180,2304 10183,2304 10187,2304 10190,2304 10193,2304 10196,2303 10200,2303 10202,2302 10205,2301 10206,2300 10208,2299 10210,2297 10213,2296 10214,2295 10216,2293 10217,2291 10217,2289 10218,2286 10219,2283 10219,2280 10220,2278 10220,2275 10221,2271 10220,2267 10220,2263 10219,2260 10219,2256 10218,2251 10213,2241 10210,2230 10205,2218 Z"/>
        <path fill="none" stroke="rgb(152,174,207)" stroke-width="18" stroke-linejoin="miter" d="M 10333,2327 L 10253,2161 10246,2147 10239,2133 10233,2120 10232,2118 10230,2115 10230,2114 10229,2112 10228,2111 10227,2110 10256,2110 10259,2115 10260,2118 10260,2118 10261,2120 10263,2123 10266,2127 10267,2130 10269,2133 10275,2145 10280,2154 10281,2154 10280,2152 10280,2149 10279,2143 10277,2137 10277,2133 10277,2131 10277,2129 10277,2127 10277,2125 10277,2123 10277,2121 10277,2119 10277,2118 10278,2117 10279,2115 10279,2114 10280,2113 10281,2112 10283,2111 10283,2110 10285,2109 10286,2108 10288,2108 10288,2107 10290,2107 10292,2106 10295,2106 10296,2106 10298,2106 10300,2106 10301,2106 10302,2106 10303,2106 10304,2106 10306,2107 10307,2107 10307,2107 10308,2107 10308,2107 10309,2107 10310,2108 10311,2108 10312,2108 10312,2108 10312,2108 10330,2141 10330,2141 10329,2141 10328,2140 10327,2140 10325,2140 10323,2139 10322,2139 10322,2139 10313,2139 10310,2139 10308,2139 10306,2140 10304,2141 10302,2141 10300,2142 10299,2144 10298,2145 10297,2147 10295,2148 10295,2150 10294,2152 10294,2154 10293,2155 10293,2157 10294,2160 10294,2165 10295,2168 10295,2171 10296,2174 10296,2177 10298,2180 10299,2184 10302,2191 10304,2198 10308,2206 10312,2214 10370,2327 10333,2327 Z"/>
        <path fill="none" stroke="rgb(152,174,207)" stroke-width="18" stroke-linejoin="miter" d="M 10601,2327 L 10467,2227 10456,2249 10503,2327 10468,2327 10295,2030 10323,2030 10435,2215 10451,2110 10486,2110 10473,2203 10643,2327 10601,2327 Z"/>
       </g>
      </g>
     </g>
    </g>
   </g>
  </g>
 </g>
</svg>