<?xml version="1.0" encoding="UTF-8"?>
<!DOCTYPE svg PUBLIC "-//W3C//DTD SVG 1.1//EN" "http://www.w3.org/Graphics/SVG/1.1/DTD/svg11.dtd">
<svg version="1.2" width="140.13mm" height="38.22mm" viewBox="-15023 4826 14013 3822" preserveAspectRatio="xMidYMid" fill-rule="evenodd" stroke-width="28.222" stroke-linejoin="round" xmlns="http://www.w3.org/2000/svg" xmlns:ooo="http://xml.openoffice.org/svg/export" xmlns:xlink="http://www.w3.org/1999/xlink" xmlns:presentation="http://sun.com/xmlns/staroffice/presentation" xmlns:smil="http://www.w3.org/2001/SMIL20/" xmlns:anim="urn:oasis:names:tc:opendocument:xmlns:animation:1.0" xml:space="preserve">
 <defs class="EmbeddedBulletChars">
  <g id="bullet-char-template-57356" transform="scale(0.00048828125,-0.00048828125)">
   <path d="M 580,1141 L 1163,571 580,0 -4,571 580,1141 Z"/>
  </g>
  <g id="bullet-char-template-57354" transform="scale(0.00048828125,-0.00048828125)">
   <path d="M 8,1128 L 1137,1128 1137,0 8,0 8,1128 Z"/>
  </g>
  <g id="bullet-char-template-10146" transform="scale(0.00048828125,-0.00048828125)">
   <path d="M 174,0 L 602,739 174,1481 1456,739 174,0 Z M 1358,739 L 309,1346 659,739 1358,739 Z"/>
  </g>
  <g id="bullet-char-template-10132" transform="scale(0.00048828125,-0.00048828125)">
   <path d="M 2015,739 L 1276,0 717,0 1260,543 174,543 174,936 1260,936 717,1481 1274,1481 2015,739 Z"/>
  </g>
  <g id="bullet-char-template-10007" transform="scale(0.00048828125,-0.00048828125)">
   <path d="M 0,-2 C -7,14 -16,27 -25,37 L 356,567 C 262,823 215,952 215,954 215,979 228,992 255,992 264,992 276,990 289,987 310,991 331,999 354,1012 L 381,999 492,748 772,1049 836,1024 860,1049 C 881,1039 901,1025 922,1006 886,937 835,863 770,784 769,783 710,716 594,584 L 774,223 C 774,196 753,168 711,139 L 727,119 C 717,90 699,76 672,76 641,76 570,178 457,381 L 164,-76 C 142,-110 111,-127 72,-127 30,-127 9,-110 8,-76 1,-67 -2,-52 -2,-32 -2,-23 -1,-13 0,-2 Z"/>
  </g>
  <g id="bullet-char-template-10004" transform="scale(0.00048828125,-0.00048828125)">
   <path d="M 285,-33 C 182,-33 111,30 74,156 52,228 41,333 41,471 41,549 55,616 82,672 116,743 169,778 240,778 293,778 328,747 346,684 L 369,508 C 377,444 397,411 428,410 L 1163,1116 C 1174,1127 1196,1133 1229,1133 1271,1133 1292,1118 1292,1087 L 1292,965 C 1292,929 1282,901 1262,881 L 442,47 C 390,-6 338,-33 285,-33 Z"/>
  </g>
  <g id="bullet-char-template-9679" transform="scale(0.00048828125,-0.00048828125)">
   <path d="M 813,0 C 632,0 489,54 383,161 276,268 223,411 223,592 223,773 276,916 383,1023 489,1130 632,1184 813,1184 992,1184 1136,1130 1245,1023 1353,916 1407,772 1407,592 1407,412 1353,268 1245,161 1136,54 992,0 813,0 Z"/>
  </g>
  <g id="bullet-char-template-8226" transform="scale(0.00048828125,-0.00048828125)">
   <path d="M 346,457 C 273,457 209,483 155,535 101,586 74,649 74,723 74,796 101,859 155,911 209,963 273,989 346,989 419,989 480,963 531,910 582,859 608,796 608,723 608,648 583,586 532,535 482,483 420,457 346,457 Z"/>
  </g>
  <g id="bullet-char-template-8211" transform="scale(0.00048828125,-0.00048828125)">
   <path d="M -4,459 L 1135,459 1135,606 -4,606 -4,459 Z"/>
  </g>
  <g id="bullet-char-template-61548" transform="scale(0.00048828125,-0.00048828125)">
   <path d="M 173,740 C 173,903 231,1043 346,1159 462,1274 601,1332 765,1332 928,1332 1067,1274 1183,1159 1299,1043 1357,903 1357,740 1357,577 1299,437 1183,322 1067,206 928,148 765,148 601,148 462,206 346,322 231,437 173,577 173,740 Z"/>
  </g>
 </defs>
 <g class="Page">
  <g class="com.sun.star.drawing.PolyPolygonShape">
   <g id="id3">
    <rect class="BoundingBox" stroke="none" fill="none" x="-15003" y="4847" width="13972" height="3775"/>
    <path fill="rgb(152,174,207)" stroke="none" d="M -15002,4880 L -14549,4881 -14549,5680 -13524,5791 -13524,4886 -13070,4888 -13070,7337 -13524,7218 -13524,6167 -14549,6015 -14549,6941 -15002,6820 -15002,4880 Z M -12818,4888 L -11193,4896 -11193,5374 -12364,5318 -12364,5914 -11240,6033 -11240,6509 -12364,6341 -12364,7102 -11163,7372 -11163,7849 -12818,7404 -12818,4888 Z M -10548,5395 L -10548,6336 -10214,6378 -10167,6382 -10123,6380 -10082,6377 -10043,6369 -10025,6362 -10007,6356 -9990,6346 -9974,6336 -9959,6328 -9944,6315 -9930,6303 -9917,6289 -9905,6274 -9895,6256 -9884,6239 -9872,6221 -9864,6203 -9856,6184 -9850,6163 -9841,6141 -9832,6094 -9823,6041 -9817,5986 -9817,5927 -9817,5868 -9823,5814 -9832,5762 -9841,5713 -9850,5690 -9856,5667 -9864,5645 -9872,5626 -9884,5605 -9895,5587 -9905,5567 -9917,5551 -9930,5536 -9944,5519 -9959,5508 -9974,5493 -9990,5482 -10007,5470 -10043,5451 -10082,5434 -10123,5425 -10167,5415 -10214,5413 -10548,5395 Z M -11003,4898 L -10214,4901 -10111,4906 -10016,4917 -9926,4939 -9843,4968 -9764,5006 -9727,5030 -9694,5053 -9660,5079 -9627,5109 -9599,5140 -9570,5171 -9544,5207 -9516,5245 -9493,5284 -9472,5325 -9452,5366 -9432,5413 -9416,5461 -9401,5508 -9388,5560 -9377,5611 -9359,5724 -9349,5842 -9346,5968 -9349,6094 -9359,6213 -9377,6321 -9388,6374 -9401,6421 -9416,6468 -9432,6511 -9452,6555 -9472,6594 -9493,6630 -9516,6665 -9544,6699 -9570,6729 -9599,6758 -9627,6783 -9660,6806 -9694,6825 -9727,6845 -9764,6861 -9843,6886 -9926,6899 -10016,6905 -10111,6900 -10214,6887 -10548,6832 -10548,8015 -11003,7894 -11003,4898 Z M -9220,4906 L -8766,4906 -8766,6298 -8015,6378 -7744,6349 -7744,4909 -7289,4908 -7289,8499 -7744,8620 -7744,6951 -8015,6992 -8766,6881 -8766,8492 -9220,8371 -9220,4906 Z M -7037,4906 L -5412,4899 -5412,5402 -6584,5456 -6584,6226 -5460,6105 -5460,6609 -6584,6778 -6584,7758 -5383,7486 -5383,7987 -7037,8430 -7037,4906 Z M -3923,6328 L -3920,6326 -3918,6325 -3917,6323 -3913,6321 -3912,6321 -3908,6321 -3907,6320 -3904,6321 -3897,6321 -3890,6325 -3882,6328 -3874,6333 -3858,6346 -3836,6364 -3814,6387 -3789,6413 -3761,6444 -3735,6477 -3709,6513 -3684,6550 -3632,6634 -3580,6727 -3208,7403 -3701,7535 -4021,6920 -4049,6868 -4075,6820 -4102,6776 -4128,6738 -4152,6706 -4177,6678 -4203,6657 -4214,6645 -4226,6639 -4237,6634 -4250,6627 -4277,6616 -4306,6606 -4337,6603 -4372,6599 -4409,6599 -4447,6603 -4488,6608 -4767,6653 -4767,7822 -5222,7943 -5222,4898 -4434,4894 -4331,4898 -4232,4906 -4141,4924 -4057,4945 -3980,4973 -3943,4989 -3908,5007 -3874,5027 -3843,5047 -3812,5070 -3784,5092 -3758,5117 -3733,5143 -3710,5171 -3689,5200 -3670,5232 -3652,5266 -3634,5299 -3620,5335 -3606,5372 -3594,5408 -3578,5490 -3566,5578 -3565,5673 -3566,5735 -3571,5796 -3580,5855 -3593,5911 -3609,5965 -3629,6017 -3653,6068 -3681,6115 -3710,6161 -3740,6200 -3768,6235 -3784,6251 -3799,6262 -3814,6275 -3830,6287 -3846,6298 -3859,6307 -3874,6313 -3890,6320 -3907,6323 -3923,6328 Z M -4767,5362 L -4767,6187 -4434,6146 -4385,6140 -4337,6130 -4296,6115 -4255,6100 -4219,6082 -4203,6073 -4187,6061 -4172,6051 -4159,6038 -4146,6027 -4133,6014 -4120,5999 -4110,5986 -4098,5969 -4092,5955 -4082,5938 -4074,5920 -4066,5902 -4059,5884 -4054,5866 -4049,5845 -4043,5803 -4036,5760 -4036,5713 -4036,5665 -4043,5623 -4049,5582 -4054,5562 -4059,5544 -4066,5528 -4074,5511 -4082,5497 -4092,5480 -4098,5465 -4110,5454 -4120,5439 -4133,5428 -4146,5418 -4159,5408 -4172,5398 -4187,5390 -4203,5382 -4219,5374 -4255,5362 -4296,5354 -4337,5348 -4385,5346 -4434,5348 -4767,5362 Z M -1690,5382 L -1714,5359 -1739,5336 -1763,5318 -1791,5299 -1819,5284 -1847,5266 -1876,5254 -1907,5241 -1938,5230 -1973,5222 -2006,5214 -2040,5209 -2076,5204 -2114,5200 -2190,5200 -2266,5207 -2303,5214 -2339,5222 -2374,5230 -2408,5241 -2441,5254 -2474,5268 -2503,5284 -2534,5302 -2563,5323 -2591,5343 -2617,5367 -2642,5392 -2670,5420 -2691,5449 -2714,5479 -2737,5511 -2755,5544 -2775,5580 -2806,5654 -2832,5732 -2853,5819 -2868,5909 -2876,6004 -2879,6105 -2876,6205 -2868,6298 -2853,6383 -2832,6464 -2806,6534 -2775,6599 -2755,6629 -2737,6657 -2714,6683 -2691,6707 -2670,6730 -2642,6752 -2617,6770 -2591,6784 -2563,6799 -2534,6810 -2503,6822 -2474,6828 -2441,6835 -2408,6838 -2374,6840 -2339,6840 -2303,6837 -2267,6833 -2190,6819 -2114,6799 -2076,6784 -2040,6770 -2006,6755 -1973,6738 -1938,6722 -1907,6701 -1876,6681 -1848,6658 -1819,6635 -1791,6611 -1763,6586 -1739,6558 -1714,6531 -1690,6501 -1667,6472 -1646,6439 -1626,6408 -1610,6375 -1577,6308 -1551,6236 -1531,6163 -1515,6084 -1507,6002 -1503,5917 -1507,5832 -1515,5752 -1529,5678 -1549,5608 -1577,5546 -1610,5485 -1626,5457 -1646,5431 -1667,5405 -1690,5382 Z M -2190,4847 L -2061,4852 -1938,4867 -1883,4876 -1826,4890 -1770,4906 -1716,4922 -1665,4942 -1616,4963 -1565,4988 -1520,5012 -1475,5038 -1431,5070 -1389,5101 -1348,5133 -1309,5168 -1274,5205 -1241,5243 -1209,5281 -1181,5320 -1156,5362 -1111,5449 -1076,5541 -1052,5637 -1039,5742 -1032,5853 -1039,5963 -1052,6071 -1076,6174 -1111,6277 -1156,6375 -1181,6423 -1209,6470 -1241,6518 -1274,6563 -1309,6611 -1348,6655 -1389,6699 -1431,6743 -1474,6784 -1520,6824 -1565,6863 -1616,6899 -1665,6935 -1716,6968 -1770,6999 -1826,7030 -1883,7058 -1938,7085 -2061,7133 -2190,7172 -2318,7203 -2441,7221 -2498,7224 -2557,7226 -2611,7223 -2663,7218 -2717,7211 -2768,7198 -2815,7182 -2863,7164 -2909,7141 -2953,7116 -2994,7087 -3035,7054 -3072,7018 -3108,6981 -3143,6940 -3172,6896 -3200,6848 -3228,6799 -3272,6693 -3305,6576 -3331,6450 -3346,6315 -3351,6169 -3346,6023 -3333,5883 -3305,5750 -3272,5624 -3228,5505 -3200,5449 -3172,5393 -3143,5341 -3108,5290 -3072,5243 -3035,5196 -2994,5153 -2953,5112 -2909,5074 -2863,5040 -2815,5007 -2768,4980 -2717,4953 -2663,4930 -2611,4911 -2557,4894 -2500,4880 -2441,4868 -2318,4852 -2190,4847 Z"/>
   </g>
  </g>
  <g class="com.sun.star.drawing.PolyPolygonShape">
   <g id="id4">
    <rect class="BoundingBox" stroke="none" fill="none" x="-15023" y="4859" width="1975" height="2506"/>
    <path fill="none" stroke="rgb(0,0,0)" stroke-width="41" stroke-linejoin="miter" d="M -15002,4880 L -14549,4881 -14549,5680 -13524,5791 -13524,4886 -13070,4888 -13070,7337 -13524,7218 -13524,6167 -14549,6015 -14549,6941 -15002,6820 -15002,4880 Z"/>
   </g>
  </g>
  <g class="com.sun.star.drawing.PolyPolygonShape">
   <g id="id5">
    <rect class="BoundingBox" stroke="none" fill="none" x="-12839" y="4867" width="1698" height="3011"/>
    <path fill="none" stroke="rgb(0,0,0)" stroke-width="41" stroke-linejoin="miter" d="M -12818,4888 L -11193,4896 -11193,5374 -12364,5318 -12364,5914 -11240,6033 -11240,6509 -12364,6341 -12364,7102 -11163,7372 -11163,7849 -12818,7404 -12818,4888 Z"/>
   </g>
  </g>
  <g class="com.sun.star.drawing.PolyPolygonShape">
   <g id="id6">
    <rect class="BoundingBox" stroke="none" fill="none" x="-10569" y="5373" width="774" height="1031"/>
    <path fill="none" stroke="rgb(0,0,0)" stroke-width="41" stroke-linejoin="miter" d="M -10548,5395 L -10548,6336 -10214,6378 -10167,6382 -10123,6380 -10082,6377 -10043,6369 -10025,6362 -10007,6356 -9990,6346 -9974,6336 -9959,6328 -9944,6315 -9930,6303 -9917,6289 -9905,6274 -9895,6256 -9884,6239 -9872,6221 -9864,6203 -9856,6184 -9850,6163 -9841,6141 -9832,6094 -9823,6041 -9817,5986 -9817,5927 -9817,5868 -9823,5814 -9832,5762 -9841,5713 -9850,5690 -9856,5667 -9864,5645 -9872,5626 -9884,5605 -9895,5587 -9905,5567 -9917,5551 -9930,5536 -9944,5519 -9959,5508 -9974,5493 -9990,5482 -10007,5470 -10043,5451 -10082,5434 -10123,5425 -10167,5415 -10214,5413 -10548,5395 Z"/>
   </g>
  </g>
  <g class="com.sun.star.drawing.PolyPolygonShape">
   <g id="id7">
    <rect class="BoundingBox" stroke="none" fill="none" x="-11024" y="4877" width="1700" height="3166"/>
    <path fill="none" stroke="rgb(0,0,0)" stroke-width="41" stroke-linejoin="miter" d="M -11003,4898 L -10214,4901 -10111,4906 -10016,4917 -9926,4939 -9843,4968 -9764,5006 -9727,5030 -9694,5053 -9660,5079 -9627,5109 -9599,5140 -9570,5171 -9544,5207 -9516,5245 -9493,5284 -9472,5325 -9452,5366 -9432,5413 -9416,5461 -9401,5508 -9388,5560 -9377,5611 -9359,5724 -9349,5842 -9346,5968 -9349,6094 -9359,6213 -9377,6321 -9388,6374 -9401,6421 -9416,6468 -9432,6511 -9452,6555 -9472,6594 -9493,6630 -9516,6665 -9544,6699 -9570,6729 -9599,6758 -9627,6783 -9660,6806 -9694,6825 -9727,6845 -9764,6861 -9843,6886 -9926,6899 -10016,6905 -10111,6900 -10214,6887 -10548,6832 -10548,8015 -11003,7894 -11003,4898 Z"/>
   </g>
  </g>
  <g class="com.sun.star.drawing.PolyPolygonShape">
   <g id="id8">
    <rect class="BoundingBox" stroke="none" fill="none" x="-9241" y="4885" width="1976" height="3763"/>
    <path fill="none" stroke="rgb(0,0,0)" stroke-width="41" stroke-linejoin="miter" d="M -9220,4906 L -8766,4906 -8766,6298 -8015,6378 -7742,6349 -7742,4909 -7287,4908 -7287,8499 -7742,8620 -7742,6951 -8015,6992 -8766,6881 -8766,8492 -9220,8371 -9220,4906 Z"/>
   </g>
  </g>
  <g class="com.sun.star.drawing.PolyPolygonShape">
   <g id="id9">
    <rect class="BoundingBox" stroke="none" fill="none" x="-7058" y="4878" width="1697" height="3581"/>
    <path fill="none" stroke="rgb(0,0,0)" stroke-width="41" stroke-linejoin="miter" d="M -7037,4906 L -5412,4899 -5412,5402 -6584,5456 -6584,6226 -5460,6105 -5460,6609 -6584,6778 -6584,7758 -5383,7486 -5383,7987 -7037,8430 -7037,4906 Z"/>
   </g>
  </g>
  <g class="com.sun.star.drawing.PolyPolygonShape">
   <g id="id10">
    <rect class="BoundingBox" stroke="none" fill="none" x="-5243" y="4873" width="2067" height="3098"/>
    <path fill="none" stroke="rgb(0,0,0)" stroke-width="41" stroke-linejoin="miter" d="M -3923,6328 L -3920,6326 -3918,6325 -3917,6323 -3913,6321 -3912,6321 -3908,6321 -3907,6320 -3904,6321 -3897,6321 -3890,6325 -3882,6328 -3874,6333 -3858,6346 -3836,6364 -3814,6387 -3789,6413 -3761,6444 -3735,6477 -3709,6513 -3684,6550 -3632,6634 -3580,6727 -3208,7403 -3701,7535 -4021,6920 -4049,6868 -4075,6820 -4102,6776 -4128,6738 -4152,6706 -4177,6678 -4203,6657 -4214,6645 -4226,6639 -4237,6634 -4250,6627 -4277,6616 -4306,6606 -4337,6603 -4372,6599 -4409,6599 -4447,6603 -4488,6608 -4767,6653 -4767,7822 -5222,7943 -5222,4898 -4434,4894 -4331,4898 -4232,4906 -4141,4924 -4057,4945 -3980,4973 -3943,4989 -3908,5007 -3874,5027 -3843,5047 -3812,5070 -3784,5092 -3758,5117 -3733,5143 -3710,5171 -3689,5200 -3670,5232 -3652,5266 -3634,5299 -3620,5335 -3606,5372 -3594,5408 -3578,5490 -3566,5578 -3565,5673 -3566,5735 -3571,5796 -3580,5855 -3593,5911 -3609,5965 -3629,6017 -3653,6068 -3681,6115 -3710,6161 -3740,6200 -3768,6235 -3784,6251 -3799,6262 -3814,6275 -3830,6287 -3846,6298 -3859,6307 -3874,6313 -3890,6320 -3907,6323 -3923,6328 Z"/>
   </g>
  </g>
  <g class="com.sun.star.drawing.PolyPolygonShape">
   <g id="id11">
    <rect class="BoundingBox" stroke="none" fill="none" x="-4788" y="5325" width="774" height="887"/>
    <path fill="none" stroke="rgb(0,0,0)" stroke-width="41" stroke-linejoin="miter" d="M -4767,5362 L -4767,6187 -4434,6146 -4385,6140 -4337,6130 -4296,6115 -4255,6100 -4219,6082 -4203,6073 -4187,6061 -4172,6051 -4159,6038 -4146,6027 -4133,6014 -4120,5999 -4110,5986 -4098,5969 -4092,5955 -4082,5938 -4074,5920 -4066,5902 -4059,5884 -4054,5866 -4049,5845 -4043,5803 -4036,5760 -4036,5713 -4036,5665 -4043,5623 -4049,5582 -4054,5562 -4059,5544 -4066,5528 -4074,5511 -4082,5497 -4092,5480 -4098,5465 -4110,5454 -4120,5439 -4133,5428 -4146,5418 -4159,5408 -4172,5398 -4187,5390 -4203,5382 -4219,5374 -4255,5362 -4296,5354 -4337,5348 -4385,5346 -4434,5348 -4767,5362 Z"/>
   </g>
  </g>
  <g class="com.sun.star.drawing.PolyPolygonShape">
   <g id="id12">
    <rect class="BoundingBox" stroke="none" fill="none" x="-2884" y="5117" width="1419" height="1683"/>
    <path fill="none" stroke="rgb(0,0,0)" stroke-width="41" stroke-linejoin="miter" d="M -1673,5320 L -1698,5297 -1722,5274 -1747,5256 -1775,5236 -1803,5222 -1830,5204 -1860,5192 -1891,5179 -1922,5168 -1956,5160 -1989,5151 -2024,5146 -2060,5142 -2097,5138 -2174,5138 -2249,5145 -2287,5151 -2323,5160 -2357,5168 -2392,5179 -2424,5192 -2457,5205 -2487,5222 -2518,5240 -2547,5261 -2575,5281 -2601,5305 -2626,5330 -2653,5357 -2675,5387 -2698,5416 -2721,5449 -2739,5482 -2758,5518 -2789,5591 -2815,5670 -2837,5757 -2851,5847 -2860,5942 -2863,6043 -2860,6143 -2851,6236 -2837,6321 -2815,6401 -2789,6472 -2758,6537 -2739,6567 -2721,6594 -2698,6621 -2675,6645 -2653,6668 -2626,6689 -2601,6707 -2575,6722 -2547,6737 -2518,6748 -2487,6760 -2457,6766 -2424,6773 -2392,6776 -2357,6778 -2323,6778 -2287,6774 -2251,6771 -2174,6756 -2097,6737 -2060,6722 -2024,6707 -1989,6693 -1956,6676 -1922,6660 -1891,6639 -1860,6619 -1832,6596 -1803,6573 -1775,6549 -1747,6524 -1722,6496 -1698,6468 -1673,6439 -1650,6410 -1629,6377 -1610,6346 -1593,6313 -1560,6246 -1534,6174 -1515,6100 -1498,6022 -1490,5940 -1487,5855 -1490,5770 -1498,5690 -1513,5616 -1533,5546 -1560,5483 -1593,5423 -1610,5395 -1629,5369 -1650,5343 -1673,5320 Z"/>
   </g>
  </g>
  <g class="com.sun.star.drawing.PolyPolygonShape">
   <g id="id13">
    <rect class="BoundingBox" stroke="none" fill="none" x="-3372" y="4826" width="2362" height="2422"/>
    <path fill="none" stroke="rgb(0,0,0)" stroke-width="41" stroke-linejoin="miter" d="M -2190,4847 L -2061,4852 -1938,4867 -1883,4876 -1826,4890 -1770,4906 -1716,4922 -1665,4942 -1616,4963 -1565,4988 -1520,5012 -1475,5038 -1431,5070 -1389,5101 -1348,5133 -1309,5168 -1274,5205 -1241,5243 -1209,5281 -1181,5320 -1156,5362 -1111,5449 -1076,5541 -1052,5637 -1039,5742 -1032,5853 -1039,5963 -1052,6071 -1076,6174 -1111,6277 -1156,6375 -1181,6423 -1209,6470 -1241,6518 -1274,6563 -1309,6611 -1348,6655 -1389,6699 -1431,6743 -1474,6784 -1520,6824 -1565,6863 -1616,6899 -1665,6935 -1716,6968 -1770,6999 -1826,7030 -1883,7058 -1938,7085 -2061,7133 -2190,7172 -2318,7203 -2441,7221 -2498,7224 -2557,7226 -2611,7223 -2663,7218 -2717,7211 -2768,7198 -2815,7182 -2863,7164 -2909,7141 -2953,7116 -2994,7087 -3035,7054 -3072,7018 -3108,6981 -3143,6940 -3172,6896 -3200,6848 -3228,6799 -3272,6693 -3305,6576 -3331,6450 -3346,6315 -3351,6169 -3346,6023 -3333,5883 -3305,5750 -3272,5624 -3228,5505 -3200,5449 -3172,5393 -3143,5341 -3108,5290 -3072,5243 -3035,5196 -2994,5153 -2953,5112 -2909,5074 -2863,5040 -2815,5007 -2768,4980 -2717,4953 -2663,4930 -2611,4911 -2557,4894 -2500,4880 -2441,4868 -2318,4852 -2190,4847 Z"/>
   </g>
  </g>
  <g class="com.sun.star.drawing.ClosedBezierShape">
   <g id="id14">
    <rect class="BoundingBox" stroke="none" fill="none" x="-3268" y="5040" width="2089" height="2145"/>
    <path fill="rgb(152,174,207)" stroke="none" d="M -1945,5040 C -1378,5030 -1064,5490 -1221,6097 -1379,6706 -1934,7177 -2502,7184 -3071,7193 -3384,6734 -3227,6127 -3068,5518 -2513,5048 -1945,5040 Z M -2948,5053 L -2948,5053 Z M -1497,7171 L -1497,7171 Z"/>
   </g>
  </g>
  <g class="com.sun.star.drawing.ClosedBezierShape">
   <g id="id15">
    <rect class="BoundingBox" stroke="none" fill="none" x="-3003" y="5502" width="1621" height="1212"/>
    <path fill="none" stroke="rgb(255,255,255)" stroke-width="41" stroke-linejoin="round" d="M -2318,5914 C -1875,5603 -1484,5447 -1415,5559 -1343,5668 -1628,5989 -2068,6301 -2510,6614 -2903,6766 -2971,6657 -3043,6545 -2759,6226 -2318,5914 Z"/>
   </g>
  </g>
  <g class="com.sun.star.drawing.ClosedBezierShape">
   <g id="id16">
    <rect class="BoundingBox" stroke="none" fill="none" x="-2388" y="5168" width="541" height="1698"/>
    <path fill="none" stroke="rgb(255,255,255)" stroke-width="41" stroke-linejoin="round" d="M -2367,6057 C -2362,5588 -2251,5211 -2110,5190 -1969,5167 -1865,5507 -1870,5977 -1874,6443 -1987,6820 -2128,6843 -2269,6864 -2372,6524 -2367,6057 Z"/>
   </g>
  </g>
  <g class="com.sun.star.drawing.ClosedBezierShape">
   <g id="id17">
    <rect class="BoundingBox" stroke="none" fill="none" x="-3008" y="5536" width="1571" height="907"/>
    <path fill="none" stroke="rgb(255,255,255)" stroke-width="41" stroke-linejoin="round" d="M -2379,6185 C -2800,5970 -3057,5719 -2969,5607 -2883,5495 -2490,5577 -2068,5792 -1645,6010 -1390,6260 -1476,6371 -1564,6483 -1956,6403 -2379,6185 Z"/>
   </g>
  </g>
  <g class="com.sun.star.drawing.PolyPolygonShape">
   <g id="id18">
    <rect class="BoundingBox" stroke="none" fill="none" x="-2229" y="5929" width="227" height="228"/>
    <path fill="rgb(255,255,255)" stroke="none" d="M -2115,5938 L -2104,5938 -2094,5940 -2089,5942 -2082,5942 -2078,5943 -2073,5945 -2069,5947 -2064,5948 -2060,5951 -2056,5953 -2051,5955 -2048,5958 -2045,5961 -2040,5963 -2037,5966 -2033,5969 -2030,5973 -2028,5976 -2025,5979 -2024,5984 -2019,5991 -2015,5999 -2014,6007 -2012,6017 -2012,6027 -2012,6037 -2014,6045 -2015,6055 -2019,6063 -2024,6073 -2025,6076 -2028,6081 -2030,6084 -2033,6089 -2037,6092 -2040,6097 -2045,6100 -2048,6104 -2051,6107 -2056,6112 -2060,6115 -2064,6118 -2069,6120 -2073,6123 -2078,6127 -2082,6130 -2089,6131 -2094,6133 -2104,6138 -2115,6141 -2127,6145 -2138,6146 -2143,6146 -2150,6146 -2153,6146 -2158,6146 -2163,6145 -2168,6145 -2172,6143 -2176,6141 -2181,6138 -2184,6136 -2187,6135 -2192,6131 -2195,6128 -2199,6125 -2202,6122 -2204,6117 -2207,6113 -2208,6109 -2213,6100 -2215,6089 -2218,6079 -2220,6066 -2220,6055 -2220,6041 -2218,6028 -2215,6017 -2213,6005 -2208,5996 -2207,5991 -2204,5986 -2202,5981 -2199,5978 -2195,5973 -2192,5969 -2187,5965 -2184,5961 -2181,5958 -2176,5955 -2172,5953 -2168,5950 -2163,5948 -2158,5945 -2153,5943 -2150,5943 -2143,5942 -2138,5940 -2127,5938 -2115,5938 Z"/>
    <path fill="none" stroke="rgb(255,255,255)" stroke-width="18" stroke-linejoin="miter" d="M -2115,5938 L -2104,5938 -2094,5940 -2089,5942 -2082,5942 -2078,5943 -2073,5945 -2069,5947 -2064,5948 -2060,5951 -2056,5953 -2051,5955 -2048,5958 -2045,5961 -2040,5963 -2037,5966 -2033,5969 -2030,5973 -2028,5976 -2025,5979 -2024,5984 -2019,5991 -2015,5999 -2014,6007 -2012,6017 -2012,6027 -2012,6037 -2014,6045 -2015,6055 -2019,6063 -2024,6073 -2025,6076 -2028,6081 -2030,6084 -2033,6089 -2037,6092 -2040,6097 -2045,6100 -2048,6104 -2051,6107 -2056,6112 -2060,6115 -2064,6118 -2069,6120 -2073,6123 -2078,6127 -2082,6130 -2089,6131 -2094,6133 -2104,6138 -2115,6141 -2127,6145 -2138,6146 -2143,6146 -2150,6146 -2153,6146 -2158,6146 -2163,6145 -2168,6145 -2172,6143 -2176,6141 -2181,6138 -2184,6136 -2187,6135 -2192,6131 -2195,6128 -2199,6125 -2202,6122 -2204,6117 -2207,6113 -2208,6109 -2213,6100 -2215,6089 -2218,6079 -2220,6066 -2220,6055 -2220,6041 -2218,6028 -2215,6017 -2213,6005 -2208,5996 -2207,5991 -2204,5986 -2202,5981 -2199,5978 -2195,5973 -2192,5969 -2187,5965 -2184,5961 -2181,5958 -2176,5955 -2172,5953 -2168,5950 -2163,5948 -2158,5945 -2153,5943 -2150,5943 -2143,5942 -2138,5940 -2127,5938 -2115,5938 Z"/>
   </g>
  </g>
 </g>
</svg>